<svg xmlns="http://www.w3.org/2000/svg" viewBox="0 0 719 220" height="220" width="719"><path d="M386.317 97.03c-1.72-1.72-1.48-8.408.447-12.469 2.769-5.834 6.977-9.33 11.23-9.33 2.048 0 4.263.54 4.923 1.2 2.074 2.074 1.45 10.131-1.074 13.878-4.327 6.421-12.352 9.895-15.526 6.721zm255.467 103.534c-2.432-2.432 2.432-16.867 10.257-30.44 2.242-3.888 4.076-7.318 4.076-7.622 0-.304-7.136 6.43-15.857 14.965-17.344 16.973-24.894 22.763-29.68 22.763-4.108 0-5.463-1.604-5.463-6.47 0-14.571 13.718-41.89 30.027-59.797 14.105-15.488 33.026-24.733 50.618-24.733 14.111 0 16.64 3.772 3.774 5.63-13.997 2.023-22.268 6.529-34.082 18.57-12.104 12.337-25.54 33.3-26.486 41.328-.29 2.463.04 3.028 1.936 3.297 1.795.254 5.155-2.54 15.624-13 7.336-7.329 16.073-17.15 19.415-21.825 11.03-15.426 14.894-19.036 21.925-20.488 5.548-1.145 5.07 1.421-2.834 15.237-4.013 7.013-9.91 17.81-13.106 23.992-9.493 18.365-7.549 19.98 6.993 5.812 5.333-5.195 12.62-12.815 16.196-16.932 3.575-4.118 7.062-7.516 7.75-7.553 1.585-.086 1.568.234-.231 4.541-2.314 5.539-42.455 45.008-50.496 49.651-6.305 3.64-8.992 4.438-10.356 3.074zm-135.667-1.172c0-2.955 8.676-19.822 24-46.662 15.432-27.028 21.073-35.196 27.025-39.135 4.195-2.776 11.975-4.396 11.975-2.493 0 .624-3.997 7.996-8.882 16.382-14.721 25.272-19.064 33.133-18.575 33.623.257.256 5.35-4.674 11.32-10.955 21.75-22.891 43.516-40.307 49.629-39.712 2.004.194 3.11.916 3.351 2.185.633 3.337-4.664 14.92-14.513 31.736-9.873 16.858-16.33 29.349-16.33 31.591 0 .703.926 1.278 2.059 1.278 2.096 0 19.117-16.256 30.281-28.92 5.626-6.382 5.66-6.402 5.66-3.308 0 2.553-1.858 5.147-10.33 14.42-19.177 20.994-37.615 37.046-46.477 40.463-3.89 1.5-4.457 1.51-5.856.111-3.688-3.688 2.163-17.276 20.535-47.688 6.12-10.132 11.128-19.02 11.128-19.75 0-6.8-23.398 15.577-46.187 44.172-6.575 8.25-13.328 16.509-15.007 18.353-5.057 5.553-14.806 8.39-14.806 4.309zm-175.754.685c-4.447-4.448 3.902-24.425 24.479-58.566 12.833-21.293 15.039-24.273 20.783-28.078 5.427-3.595 11.492-4.412 11.492-1.549 0 .91-6.435 13.172-14.3 27.25-17.862 31.974-20.122 37.127-16.6 37.855 1.958.404 13.934-10.638 25.67-23.67 9.312-10.34 11.271-11.756 10.47-7.568-.832 4.357-26.738 31.718-42.24 44.612-10.961 9.117-17.255 12.212-19.754 9.714zm143.544-42.765c11.724-6.063 27.21-26.86 27.21-36.543 0-10.223-16.247 5.858-28.755 28.461-5.601 10.123-5.314 11.628 1.545 8.082zm-27.712 42.772c-4.61-4.948-3.275-22.375 2.835-37.011 7.914-18.957 24.91-38.902 39.666-46.544 13.188-6.832 24.53-9.133 28.98-5.879 2.79 2.04 2.3 8.948-1.113 15.703-3.249 6.432-16.225 19.679-25.425 25.957-3.563 2.431-10.946 6.67-16.407 9.42-9.092 4.58-10.048 5.337-11.364 9-.79 2.2-1.508 6.623-1.594 9.827-.128 4.78.204 6.094 1.844 7.306 6.696 4.95 22.009-6.194 48.267-35.13 4.99-5.498 9.394-9.675 9.787-9.282 1.936 1.936-3.54 8.853-20.514 25.913-24.154 24.275-36.544 32.797-47.751 32.844-4.06.018-5.653-.452-7.21-2.124zm10-108.678c19.198-15.944 34.154-36.614 42.46-58.682 3.984-10.584 2.964-13.834-3.097-9.863-5.737 3.759-24.366 29.876-36.642 51.37-10.32 18.07-13.935 25-13.04 25 .493 0 5.137-3.522 10.32-7.825zM383.583 199.95c-.92-3.666 1.137-10.744 7.095-24.405 5.392-12.363 8.461-18.43 27.727-54.815 23.29-43.984 39.327-68.218 57.515-86.91 13.267-13.637 25.594-21.59 33.464-21.59 5.501 0 6.733 1.284 6.733 7.019 0 14.034-11.955 34.856-30.884 53.792-11.381 11.385-26.428 23.79-36.09 29.754-5.542 3.421-6.834 4.895-12.167 13.882-10.808 18.215-29.859 57.436-29.859 61.474 0 2.357 3.893.843 9.55-3.714 3.272-2.636 11.575-10.979 18.45-18.54 10.026-11.025 12.565-13.33 12.827-11.648.18 1.153-.46 3.308-1.423 4.79-3.099 4.767-21.596 24.152-32.404 33.957-19.053 17.287-29.057 22.84-30.534 16.954zm-88.665 7.53c-5.168-5.523-6.304-9.018-6.26-19.25.045-10.293 1.208-15.322 7.167-31 4.292-11.29 17.392-37.232 30.122-59.648 5.043-8.881 9.17-16.644 9.17-17.25 0-2.762-3.27-.242-14.462 11.15-14.552 14.81-30.103 33.662-52.792 63.998-9.358 12.513-17.643 22.75-18.411 22.75-.769 0-1.668-.704-1.998-1.564-.33-.86 1.744-21.054 4.61-44.874 2.865-23.82 5.055-44.604 4.866-46.186-.324-2.715-.61-2.472-5.1 4.333-8.811 13.354-20.933 37.976-31.372 63.723-10.36 25.554-20.284 42.94-28.548 50.014-4.888 4.184-6.793 4.49-6.793 1.09 0-10.397 22.014-53.317 61.054-119.036 6.208-10.45 13.203-23.61 15.546-29.246 4.91-11.812 7.758-16.254 10.423-16.254 3.238 0 3.312 5.472.536 39.729-3.42 42.2-4.219 59.271-2.772 59.271.603 0 3.252-2.812 5.888-6.25 10.247-13.366 35.48-41.928 49.315-55.82 16.396-16.465 28.224-26.218 38.073-31.393 6.906-3.63 12.937-4.65 12.937-2.191 0 .74-3.34 6.504-7.424 12.81-11.525 17.795-26.56 44.957-40.044 72.344-18.458 37.49-25.993 57.9-27.226 73.75-.685 8.806-1.999 9.816-6.505 5z" fill="#fff"/><path d="M161.41 205.438c-1.838-1.948-3.875-5.323-4.527-7.5-.652-2.177-1.243-3.958-1.312-3.958-.07 0-2.811.967-6.092 2.15-11.942 4.303-23.767 2.442-28.735-4.523-1.864-2.613-2.23-4.451-2.23-11.18 0-7.209.363-8.767 3.47-14.89 5.54-10.912 18.158-22.115 33.688-29.91 4.844-2.43 5.29-2.98 7.29-8.993 4.328-13.004 13.245-24.578 22.484-29.182 7.62-3.798 11.568-2.975 11.568 2.412 0 6.689-9.478 17.927-19.638 23.284-3.788 1.998-4.632 3.04-5.897 7.28-4.32 14.486-8.384 52.552-5.61 52.552 1.776 0 11.053-10.884 13.708-16.083 3.416-6.688 3.846-13.698 1.032-16.81-1.048-1.16-2.51-2.107-3.25-2.107-.74 0-1.345-.675-1.345-1.5 0-1.238 1.826-1.5 10.44-1.5 5.743 0 10.7.42 11.018.933.779 1.26-3.394 10.499-7.993 17.694-4.293 6.718-16.336 19.512-21.19 22.512-2.6 1.606-3.275 2.686-3.275 5.233 0 2.982 1.975 11.853 3.535 15.878 1.247 3.217-3.552 2.013-7.14-1.792zm-10.052-14.537l3.844-1.067-.654-6.677c-.738-7.54.764-25.712 3.006-36.368.822-3.909 1.262-7.34.977-7.624-.284-.285-3.025 1.21-6.091 3.321-12.83 8.837-20.74 21.932-20.863 34.538-.074 7.605 1.796 11.337 6.762 13.497 3.86 1.68 7.915 1.798 13.019.38zm29.4-75.17c4.71-4.812 7.966-11.44 6.391-13.015-2.396-2.396-7.96 3.665-11.205 12.205-2.445 6.435-.942 6.688 4.814.81zm-159.02 85.258c-9.101-1.918-16.943-5.68-18.706-8.975-1.849-3.454-1.065-8.492 2.466-15.86 7.673-16.013 21.525-37.725 24.713-38.737 4.082-1.295 4.29 1.058.997 11.285-8.09 25.122-6.02 40.568 6.305 47.044 4.287 2.253 14.032 1.977 19.765-.559C67.42 190.701 76.755 176.694 79 162.594c1.744-10.951.265-18.239-9.663-47.614-5.673-16.786-6.656-20.752-7.06-28.5-.392-7.547-.12-9.92 1.689-14.702C71.009 53.154 96.733 40.54 120.8 43.906c15.834 2.215 18.316 5.983 12.08 18.338-7.158 14.178-13.652 22.512-15.373 19.727-.345-.558-.315-5.667.066-11.354.833-12.427-.279-16.884-4.913-19.71-6.112-3.727-16.5-1.546-23.11 4.852-10.564 10.227-10.204 22.937 1.554 54.857 7.02 19.054 8.909 26.989 8.909 37.419 0 15.915-6.255 29.205-18.35 38.992-17.539 14.192-37.156 18.762-59.927 13.962z" fill="#f8c665"/></svg>