<svg xmlns="http://www.w3.org/2000/svg" viewBox="0 0 701.85577 198.10942" height="198.109" width="701.856"><path d="M292.752 195.25c-5.168-5.523-6.305-9.019-6.26-19.25.045-10.293 1.208-15.322 7.167-31 4.291-11.29 17.392-37.233 30.121-59.648 5.044-8.882 9.17-16.644 9.17-17.25 0-2.762-3.269-.242-14.462 11.15-14.551 14.809-30.103 33.662-52.791 63.998-9.358 12.512-17.643 22.75-18.412 22.75-.768 0-1.667-.704-1.998-1.564-.33-.86 1.745-21.054 4.61-44.875 2.866-23.82 5.056-44.604 4.867-46.185-.325-2.715-.61-2.473-5.1 4.333-8.812 13.354-20.933 37.975-31.372 63.723-10.36 25.554-20.284 42.94-28.549 50.013-4.888 4.184-6.793 4.49-6.793 1.09 0-10.397 22.014-53.317 61.054-119.035 6.208-10.45 13.204-23.61 15.546-29.246C264.46 32.44 267.308 28 269.973 28c3.239 0 3.312 5.471.536 39.729-3.42 42.2-4.218 59.271-2.771 59.271.603 0 3.252-2.813 5.887-6.25 10.248-13.366 35.481-41.929 49.316-55.82 16.396-16.466 28.223-26.218 38.072-31.394 6.907-3.629 12.938-4.65 12.938-2.19 0 .739-3.341 6.503-7.425 12.809-11.524 17.796-26.559 44.958-40.043 72.345-18.459 37.49-25.994 57.9-27.226 73.75-.685 8.806-2 9.816-6.505 5zm-133.406-1.792c-1.837-1.948-3.874-5.323-4.526-7.5-.652-2.177-1.243-3.958-1.312-3.958-.07 0-2.811.967-6.092 2.15-11.942 4.303-23.767 2.442-28.735-4.523-1.864-2.613-2.23-4.451-2.23-11.18 0-7.209.363-8.767 3.47-14.89 5.54-10.912 18.158-22.115 33.688-29.91 4.844-2.43 5.29-2.98 7.29-8.993 4.328-13.004 13.245-24.578 22.484-29.182 7.62-3.798 11.567-2.975 11.567 2.412 0 6.689-9.477 17.926-19.637 23.284-3.788 1.998-4.632 3.04-5.897 7.28-4.32 14.486-8.384 52.552-5.61 52.552 1.776 0 11.053-10.884 13.708-16.083 3.416-6.688 3.846-13.699 1.032-16.81-1.048-1.16-2.51-2.107-3.25-2.107-.74 0-1.345-.675-1.345-1.5 0-1.238 1.826-1.5 10.44-1.5 5.743 0 10.7.42 11.018.932.779 1.26-3.394 10.5-7.993 17.695-4.293 6.718-16.336 19.512-21.19 22.512-2.6 1.606-3.275 2.686-3.275 5.232 0 2.983 1.975 11.854 3.535 15.879 1.247 3.217-3.552 2.013-7.14-1.792zm-10.051-14.537l3.844-1.067-.654-6.677c-.738-7.54.764-25.712 3.006-36.368.822-3.91 1.262-7.34.977-7.624-.284-.285-3.025 1.21-6.091 3.321-12.83 8.837-20.74 21.932-20.863 34.538-.074 7.605 1.796 11.337 6.762 13.497 3.86 1.68 7.915 1.798 13.019.38zm29.4-75.171c4.71-4.811 7.966-11.44 6.391-13.014-2.396-2.396-7.96 3.665-11.205 12.205-2.445 6.435-.942 6.688 4.814.809zm-159.02 85.26c-9.101-1.92-16.943-5.682-18.706-8.976-1.849-3.454-1.065-8.492 2.466-15.86 7.674-16.013 21.525-37.725 24.713-38.737 4.082-1.295 4.29 1.058.997 11.285-8.09 25.122-6.02 40.568 6.305 47.044 4.287 2.253 14.032 1.977 19.765-.559 10.142-4.486 19.477-18.493 21.721-32.593 1.743-10.951.264-18.239-9.663-47.614-5.673-16.786-6.656-20.752-7.06-28.5-.392-7.547-.12-9.92 1.689-14.702 7.044-18.624 32.768-31.239 56.836-27.872 15.834 2.215 18.316 5.983 12.08 18.338-7.158 14.178-13.652 22.512-15.373 19.727-.345-.558-.315-5.667.066-11.354.832-12.427-.279-16.884-4.914-19.71-6.111-3.727-16.5-1.546-23.109 4.852-10.565 10.227-10.205 22.937 1.554 54.857 7.02 19.054 8.909 26.989 8.909 37.419 0 15.915-6.255 29.205-18.35 38.992-17.54 14.191-37.157 18.762-59.927 13.962zm361.741-1.29c-.92-3.667 1.138-10.745 7.096-24.405 5.392-12.363 8.46-18.43 27.727-54.815 23.29-43.985 39.326-68.218 57.514-86.911C487.02 7.953 499.348 0 507.217 0c5.502 0 6.734 1.284 6.734 7.019 0 14.033-11.955 34.855-30.885 53.792-11.38 11.385-26.427 23.79-36.09 29.754-5.542 3.42-6.834 4.895-12.166 13.881-10.809 18.216-29.86 57.437-29.86 61.475 0 2.356 3.893.842 9.55-3.714 3.273-2.636 11.575-10.979 18.45-18.54 10.027-11.026 12.565-13.331 12.828-11.649.18 1.154-.46 3.31-1.423 4.79-3.099 4.768-21.596 24.152-32.405 33.958-19.053 17.286-29.056 22.84-30.534 16.953zM454.03 79.174c19.198-15.944 34.154-36.613 42.46-58.682 3.984-10.583 2.963-13.833-3.098-9.862-5.737 3.76-24.367 29.876-36.642 51.37-10.321 18.07-13.936 25-13.041 25 .494 0 5.138-3.521 10.32-7.825zm-10 108.679c-4.61-4.949-3.276-22.376 2.834-37.012 7.914-18.957 24.911-38.901 39.666-46.544 13.189-6.831 24.531-9.132 28.98-5.878 2.79 2.04 2.3 8.947-1.112 15.703-3.249 6.431-16.225 19.678-25.425 25.956-3.564 2.432-10.947 6.671-16.407 9.421-9.093 4.58-10.049 5.336-11.365 9-.79 2.2-1.507 6.622-1.593 9.827-.128 4.779.203 6.093 1.844 7.306 6.695 4.95 22.009-6.195 48.267-35.13 4.99-5.498 9.394-9.675 9.787-9.282 1.936 1.936-3.54 8.852-20.515 25.912-24.154 24.276-36.543 32.798-47.75 32.845-4.06.017-5.653-.452-7.211-2.124zm27.711-42.772c11.725-6.063 27.21-26.86 27.21-36.543 0-10.224-16.247 5.857-28.755 28.461-5.6 10.122-5.313 11.628 1.545 8.082zm-143.543 42.765c-4.448-4.448 3.902-24.425 24.478-58.566 12.833-21.293 15.04-24.274 20.784-28.079 5.427-3.594 11.492-4.412 11.492-1.548 0 .91-6.435 13.172-14.3 27.25-17.863 31.974-20.122 37.126-16.6 37.854 1.958.405 13.933-10.638 25.67-23.67 9.311-10.34 11.271-11.756 10.47-7.567-.833 4.357-26.739 31.717-42.24 44.611-10.962 9.118-17.256 12.213-19.754 9.715zm175.754-.686c0-2.954 8.675-19.821 24-46.661 15.432-27.028 21.072-35.196 27.025-39.135 4.194-2.776 11.975-4.396 11.975-2.493 0 .624-3.997 7.995-8.882 16.381-14.722 25.273-19.065 33.134-18.575 33.623.256.257 5.35-4.673 11.319-10.955 21.751-22.89 43.516-40.306 49.63-39.712 2.004.195 3.11.916 3.35 2.186.633 3.336-4.664 14.92-14.513 31.736-9.873 16.858-16.33 29.348-16.33 31.59 0 .704.927 1.279 2.06 1.279 2.096 0 19.117-16.256 30.28-28.92 5.626-6.382 5.66-6.402 5.66-3.308 0 2.553-1.857 5.146-10.329 14.42-19.177 20.994-37.615 37.045-46.477 40.462-3.89 1.5-4.457 1.51-5.856.112-3.688-3.688 2.163-17.276 20.534-47.688 6.12-10.132 11.128-19.02 11.128-19.75 0-6.8-23.397 15.577-46.186 44.172-6.575 8.25-13.328 16.509-15.007 18.353-5.057 5.553-14.806 8.39-14.806 4.308zm135.666 1.172c-2.432-2.432 2.433-16.867 10.258-30.44 2.242-3.888 4.076-7.317 4.076-7.621 0-.305-7.136 6.43-15.858 14.965C620.75 182.209 613.2 188 608.413 188c-4.108 0-5.462-1.605-5.462-6.47 0-14.571 13.717-41.89 30.027-59.798C647.083 106.245 666.004 97 683.596 97c14.11 0 16.64 3.772 3.773 5.63-13.997 2.022-22.268 6.529-34.081 18.57-12.105 12.337-25.54 33.3-26.487 41.327-.29 2.463.042 3.029 1.937 3.297 1.795.255 5.154-2.54 15.624-13 7.335-7.328 16.072-17.149 19.415-21.824 11.03-15.426 14.894-19.037 21.924-20.488 5.548-1.145 5.071 1.42-2.833 15.236-4.013 7.014-9.911 17.81-13.107 23.993-9.493 18.364-7.548 19.98 6.994 5.812 5.332-5.196 12.62-12.816 16.196-16.933 3.575-4.117 7.062-7.516 7.75-7.553 1.584-.085 1.568.235-.232 4.542-2.314 5.538-42.455 45.007-50.496 49.65-6.305 3.641-8.991 4.439-10.356 3.074zM384.151 84.8c-1.72-1.72-1.48-8.409.447-12.47 2.768-5.833 6.977-9.33 11.23-9.33 2.047 0 4.263.54 4.923 1.2 2.074 2.074 1.45 10.132-1.074 13.878-4.328 6.422-12.353 9.896-15.526 6.722z" fill="#4a4b4b"/></svg>