<?xml version="1.0" standalone="no"?>
<!DOCTYPE svg PUBLIC "-//W3C//DTD SVG 1.1//EN" "http://www.w3.org/Graphics/SVG/1.1/DTD/svg11.dtd">
<svg xmlns="http://www.w3.org/2000/svg">
<metadata>Copyright (C) 2017 by original authors @ fontello.com</metadata>
<defs>
<font id="fontello" horiz-adv-x="1000" >
<font-face font-family="fontello" font-weight="400" font-stretch="normal" units-per-em="1000" ascent="850" descent="-150" />
<missing-glyph horiz-adv-x="1000" />
<glyph glyph-name="modern-satellite" unicode="&#xe800;" d="M158 692l0 0c-65-65-72-165-21-237l257 257c-72 51-172 44-236-20z m487-148l-40-39-179 179-261-261 179-179-38-38 44-44 38 38 23-23c11-11 30-11 41 0l88 88 39-39c-40-55-48-126-24-187 5-14 22-17 32-7l96 96 23-23c11-10 28-10 38 0s11 28 0 38l-23 23 97 97c10 10 6 27-7 32-62 23-133 15-188-25l-39 39 88 88c11 12 11 30 0 41l-23 23 39 39-43 44z m-636-564l120-121c6-5 13-8 21-8 7 0 15 3 20 8l198 198c11 11 11 30 0 41l-41 41-44 44-36 36c-5 6-13 8-20 8-8 0-15-2-21-8l-197-198c-12-11-12-29 0-41z m983 740l-121 121c-6 5-13 8-21 8-7 0-15-3-20-8l-198-198c-11-11-11-30 0-41l35-35 44-44 42-42c6-6 13-8 20-8s15 2 21 8l198 198c11 11 11 29 0 41z m-271-654v-48c61 0 110 49 110 110h-47c0-34-28-62-63-62z m-4-129c108 0 196 87 196 195h-48c0-81-66-148-148-148v-47z" horiz-adv-x="1000" />

<glyph glyph-name="mountain" unicode="&#xe801;" d="M911-101c-16 29-363 690-379 719 0 20 0 29 0 49h186c12 0 23 7 29 18 5 11 4 24-3 34l-30 39 30 40c7 10 8 23 3 34-6 11-17 18-29 18h-218c-18 0-32-14-32-32 0-44 0-159 0-200-6-11-368-699-379-721-12-21 4-47 28-47h766c0 0 0 0 0 0 25 0 40 27 28 49z m-234 289c-6-6-15-10-23-10-8 0-17 4-23 10l-52 52-52-52c-6-6-15-10-23-10s-17 4-23 10l-52 52-53-52c-6-6-14-10-23-10-8 0-16 4-22 10l-11 10c10 20 174 331 180 343 6-12 174-331 183-347l-6-6z" horiz-adv-x="1000" />

<glyph glyph-name="snowed-mountains" unicode="&#xe802;" d="M990 49c-75 105-304 431-304 431-5 8-14 13-23 14-10 1-19-2-26-9l-61-56-140 261c-6 11-17 18-29 18-12 0-23-6-29-17l-374-649c-6-10-6-23 0-33 6-11 17-17 29-17h933c1 0 1 0 1 0 18 0 33 15 33 33 0 10-5 17-10 24z m-400 302l64 60 127-180-108 112c-2 2-4 3-6 3-3 0-5-1-7-3l-77-76c-2-3-6-4-10-2-3 1-6 5-6 8l1 70c8 0 16 2 22 8z m-185 256l83-153-62-54c-2-2-5-2-7-2-3 0-5 1-7 3l-39 50c-2 3-5 4-8 4-3 0-6-2-7-4l-60-96c-2-3-5-4-9-4-3 0-6 3-7 6l-8 20 131 230z" horiz-adv-x="1000" />

<glyph glyph-name="mountain-flag" unicode="&#xe803;" d="M693 639h157c23 0 35 27 20 45l-26 28c-9 11-9 26 0 36l26 29c15 17 3 44-20 44h-157c-14 0-26-12-26-27v-128c0-15 12-27 26-27z m-452-569c-39 3-67 21-86 39-7 7-13 15-19 22l-131-219c-6-10-7-23-1-33s17-17 29-17h121c-12 25-10 52 5 76l82 132z m754-157l-188 302c-8-12-19-27-33-40-24-24-62-48-116-48-18 0-37 3-58 9l-9 2c-133 38-156 44-250 2l-142-227c-6-11-7-23-1-34 6-10 17-17 29-17h740c12 0 23 7 29 17 6 11 5 23-1 34z m-613 294c69 20 113 8 222-23l8-3c119-33 161 69 165 81l-152 246c-6 9-16 15-28 15-12 0-22-6-28-15h0l-187-301z m240 359v246c0 14-11 26-25 26-14 0-25-12-25-26v-246c8 3 16 4 25 4 9 0 17-1 25-4z m-351-448l119 192-45 76c-6 10-16 16-28 16s-22-6-28-16l-125-209c4-9 13-23 26-35 22-21 49-29 81-24z" horiz-adv-x="1000" />

<glyph glyph-name="training-1" unicode="&#xe804;" d="M515 850c-48 0-88-41-88-90 0-48 40-88 88-88 49 0 88 40 88 88 0 49-39 90-88 90z m146-324h-93l-100 100c-29 28-76 20-94-15l-117-235c-14-26-5-58 19-75l139-92-74-165c-10-30 7-64 37-74 31-10 64 6 74 37l88 207c9 25-1 53-23 68l-132 88 57 115 60-59c11-11 26-17 41-17h118c32 0 58 26 58 58 0 33-26 59-58 59z m-409 117c-9 0-18-2-27-6l-117-59c-29-14-40-49-26-78 15-30 50-41 79-27l105 53c10 19 49 100 59 117h-73z m-8-390c-12 8-22 18-30 29l-157-52c-30-10-47-43-37-74 11-32 44-47 74-37l176 58c19 7 28 18 36 34l-62 42z m734 289c-9 14-27 17-41 8l-176-117c-13-9-17-27-8-41 9-13 27-17 41-8l48 32-88-449h-650c-32 0-59-26-59-58 0-33 27-59 59-59h762c32 0 58 26 58 59 0 32-26 58-58 58h-53l98 495 59 39c13 9 17 28 8 41z" horiz-adv-x="1000" />

<glyph glyph-name="runer-silhouette-running-fast" unicode="&#xe805;" d="M308 626h309c8 0 15 6 15 14 0 8-7 15-15 15h-309c-8 0-14-7-14-15 0-8 6-14 14-14z m-275-144h308c8 0 15 7 15 15s-7 14-15 14h-308c-9 0-15-6-15-14s6-15 15-15z m82-151c0-8 7-15 15-15h309c8 0 14 7 14 15s-6 15-14 15h-309c-8 0-15-7-15-15z m177-171h-277c-8 0-15-6-15-14s7-15 15-15h277c8 0 15 7 15 15s-7 14-15 14z m499 373c44 0 80 36 80 81s-36 80-80 80c-45 0-80-36-80-80 0-45 35-81 80-81z m132 24c-46-65-108-72-174-33-5 3-25 14-29 16-107 64-214 39-285-61-31-43 40-83 70-41 37 52 84 67 135 50-26-45-49-91-82-155-32-65-104-116-173-76-49 29-94-42-45-71 94-55 205-21 261 50 2-1 4-2 6-3 46-16 106-58 125-74 18-15 50-92 68-130 23-47 96-13 74 34-22 44-57 132-85 154-22 17-66 51-102 69 25 48 50 96 78 143 86-27 169 4 228 87 30 42-40 83-70 41z" horiz-adv-x="1000" />

<glyph glyph-name="gps-route" unicode="&#xe806;" d="M802 454c0 0 0 0 0 0 0 0 0 0 0 0h0z m-46 25c-9 13-17 27-26 42h-597c-33 0-59-27-59-59v-71c0-33 26-59 59-59h349c3 0 6-3 6-6v-98c0-34 28-62 62-62h158c7 0 13-6 13-13v-223c0-7-6-13-13-13h-340c-11-19-22-38-33-56-3-4-6-8-10-11h383c44 0 80 36 80 80v223c0 44-36 80-80 80h-153v93c0 40-33 72-73 72h-342v56h662c-19 0-36 9-46 25z m-467-247c-69 0-125-56-125-125 0-52 73-173 107-228 4-6 11-10 18-10 7 0 14 4 18 10 34 55 107 176 107 228 0 69-56 125-125 125z m0-186c-31 0-56 25-56 56 0 31 25 56 56 56 31 0 56-25 56-56 0-31-25-56-56-56z m513 804c-69 0-125-56-125-125 0-52 72-173 107-228 4-6 10-10 18-10 7 0 14 4 17 10 35 55 107 176 107 228 0 69-55 125-124 125z m0-186c-31 0-56 25-56 56 0 31 25 56 56 56 31 0 56-25 56-56 0-31-25-56-56-56z" horiz-adv-x="1000" />

<glyph glyph-name="route" unicode="&#xe807;" d="M592 450h33c9 0 17 7 17 17s-8 16-17 16h-33c-10 0-17-7-17-16s7-17 17-17z m-59-117c-7 0-14 2-21 4-8 3-18-1-21-9-3-9 1-19 10-22 10-4 21-6 32-6h6c9 0 17 8 17 17s-8 16-17 16h-6z m-39 106c3 0 6 1 9 2 7 5 15 8 24 9 9 1 16 9 15 18s-10 16-19 15c-14-2-26-6-38-13-8-5-10-16-5-23 3-5 8-8 14-8z m106-256c-1 0-3 0-4 0-10 0-17-8-16-17 0-9 7-16 16-16 1 0 1 0 1 0l33 0c9 0 16 8 16 17s-7 16-16 16h-30z m125 267c9 0 17 7 17 17s-8 16-17 16h-33c-10 0-17-7-17-16s7-17 17-17h33z m71-267c-9 0-16-7-16-16s7-17 16-17h34c9 0 16 8 16 17s-7 16-16 16h-34z m60 134c0 9-8 16-17 16h-33c-9 0-17-7-17-16s8-17 17-17h33c9 0 17 8 17 17z m-160-167h34c9 0 16 8 16 17s-7 16-16 16h-34c-9 0-16-7-16-16s7-17 16-17z m60 167c0 9-8 16-17 16h-33c-9 0-17-7-17-16s8-17 17-17h33c9 0 17 8 17 17z m-150 16c-9 0-17-7-17-16s8-17 17-17h33c9 0 17 8 17 17s-8 16-17 16h-33z m-205-450h-33c-9 0-17-7-17-16s8-17 17-17h33c9 0 17 7 17 17s-8 16-17 16z m-100 0h-33c-9 0-17-7-17-16s8-17 17-17h33c9 0 17 7 17 17s-8 16-17 16z m576 58c-9 2-18-3-20-12-2-9-6-17-11-23-6-8-5-18 3-24 3-2 6-3 10-3 5 0 10 2 13 6 8 11 14 23 17 36 2 9-3 18-12 20z m-18 30c4 0 7 1 10 4 7 6 9 16 3 23-8 11-19 20-31 26-9 4-19 1-23-8-4-8 0-18 8-22 8-4 14-10 20-16 3-5 8-7 13-7z m-75 46c0 9-7 16-16 16h-34c-9 0-16-7-16-16s7-17 16-17h34c9 0 16 7 16 17z m16-134h-32c-9 0-17-7-17-16s8-17 17-17l33 0 0 17v-17c9 0 16 7 16 17 0 9-8 16-17 16z m190 373c-1 9-10 15-19 14-9-1-15-10-13-19 0-3 0-6 0-9 0-6-1-11-2-17-3-9 2-18 11-20 2-1 3-1 5-1 7 0 14 5 16 12 2 8 4 17 4 26 0 4-1 9-2 14z m-523 96c9 3 14 13 11 22-2 5-3 11-3 18 0 2 0 5 0 7 2 9-5 18-14 19-9 1-18-6-19-15 0-3 0-7 0-11 0-10 1-20 4-29 2-7 9-11 16-11 2 0 3 0 5 0z m479-31c-12 7-25 11-39 12-9 1-17-6-18-15 0-9 6-17 16-18 8-1 17-3 24-8 3-1 6-2 8-2 6 0 12 3 15 8 5 8 2 18-6 23z m-24-133c-7-3-14-5-22-5h-4c-9 0-16-7-16-16s7-17 16-17h4c12 0 24 2 35 7 9 4 13 13 9 22-3 8-13 12-22 9z m-379-85c1 8 5 16 10 23 5 8 4 18-4 24-7 5-17 3-23-4-8-11-14-24-16-37-2-9 4-18 13-20 1 0 2 0 3 0 8 0 15 6 17 14z m26-96c6 0 12 3 15 10 4 8 0 18-8 22-8 3-15 9-21 15-6 7-16 8-23 2-7-6-8-16-2-23 8-11 20-19 32-25 2-1 4-1 7-1z m-68-124h-33c-9 0-17-7-17-16s8-17 17-17h33c9 0 17 7 17 17s-8 16-17 16z m100 0h-33c-9 0-17-7-17-16s8-17 17-17h33c9 0 17 7 17 17s-8 16-17 16z m83 134c0 9-7 16-16 16h-34c-9 0-16-7-16-16s7-17 16-17h34c9 0 16 7 16 17z m17-134h-33c-9 0-17-7-17-16s8-17 17-17h33c9 0 17 7 17 17s-8 16-17 16z m-351 484c-37 43-88 66-142 66s-104-23-142-66c-77-87-77-228 0-315l142-161 142 161c77 87 77 228 0 315z m-142-234c-55 0-100 45-100 100s45 100 100 100 100-44 100-100-45-100-100-100z m605 309l107 121c58 65 58 172 0 237-28 32-67 50-108 50-40 0-79-18-107-50-58-65-58-172 0-237l108-121z m4 341c50 0 91-41 91-91s-41-92-91-92-92 41-92 92 41 91 92 91z" horiz-adv-x="1000" />

<glyph glyph-name="route-light" unicode="&#xe808;" d="M350 367c-37 43-88 66-142 66s-104-23-142-66c-77-87-77-228 0-315l142-161 142 161c77 87 77 228 0 315z m-25-293l-117-132-117 132c-66 75-66 196 0 271 32 35 73 55 117 55s86-20 117-55c67-75 67-196 0-271z m488 368l107 121c58 65 58 172 0 237-28 32-67 50-108 50-40 0-79-18-107-50-58-65-58-172 0-237l108-121z m-83 336c22 25 51 39 82 39 32 0 61-14 83-39 47-53 47-140 0-193l-82-93-83 93c-47 53-47 140 0 193z m147-837c-9 2-18-3-20-12-2-9-6-17-11-23-6-8-5-18 3-24 3-2 6-3 10-3 5 0 10 2 13 6 8 11 14 23 17 36 2 9-3 18-12 20z m-344 392c-7 0-14 2-21 4-8 3-18-1-21-9-3-9 1-19 10-22 10-4 21-6 32-6h6c9 0 17 8 17 17s-8 16-17 16h-6z m-39 106c3 0 6 1 9 2 7 5 15 8 24 9 9 1 16 9 15 18s-10 16-19 15c-14-2-26-6-38-13-8-5-10-16-5-23 3-5 8-8 14-8z m-193-556h-33c-9 0-17-7-17-16s8-17 17-17h33c9 0 17 7 17 17s-8 16-17 16z m299 300c-1 0-3 0-4 0-10 0-17-8-16-17 0-9 7-16 16-16 1 0 1 0 1 0l33 0c9 0 16 8 16 17s-7 16-16 16h-30z m-8 267h33c9 0 17 7 17 17s-8 16-17 16h-33c-10 0-17-7-17-16s7-17 17-17z m204-267c-9 0-16-7-16-16s7-17 16-17h34c9 0 16 8 16 17s-7 16-16 16h-34z m60 134c0 9-8 16-17 16h-33c-9 0-17-7-17-16s8-17 17-17h33c9 0 17 8 17 17z m-160-167h34c9 0 16 8 16 17s-7 16-16 16h-34c-9 0-16-7-16-16s7-17 16-17z m29 300c9 0 17 7 17 17s-8 16-17 16h-33c-10 0-17-7-17-16s7-17 17-17h33z m-119-117c-9 0-17-7-17-16s8-17 17-17h33c9 0 17 8 17 17s-8 16-17 16h-33z m150-16c0 9-8 16-17 16h-33c-9 0-17-7-17-16s8-17 17-17h33c9 0 17 8 17 17z m234-61c-1 9-10 15-19 14-9-1-15-10-13-19 0-3 0-6 0-9 0-6-1-11-2-17-3-9 2-18 11-20 2-1 3-1 5-1 7 0 14 5 16 12 2 8 4 17 4 26 0 4-1 9-2 14z m-289-373h-33c-9 0-17-7-17-16s8-17 17-17h33c9 0 17 7 17 17s-8 16-17 16z m-100 0h-33c-9 0-17-7-17-16s8-17 17-17h33c9 0 17 7 17 17s-8 16-17 16z m183 134c0 9-7 16-16 16h-34c-9 0-16-7-16-16s7-17 16-17h34c9 0 16 7 16 17z m-100 0c0 9-7 16-16 16h-34c-9 0-16-7-16-16s7-17 16-17h34c9 0 16 7 16 17z m116-134h-32c-9 0-17-7-17-16s8-17 17-17l33 0 0 17v-17c9 0 16 7 16 17 0 9-8 16-17 16z m59 88c4 0 7 1 10 4 7 6 9 16 3 23-8 11-19 20-31 26-9 4-19 1-23-8-4-8 0-18 8-22 8-4 14-10 20-16 3-5 8-7 13-7z m63 217c-7-3-14-5-22-5h-4c-9 0-16-7-16-16s7-17 16-17h4c12 0 24 2 35 7 9 4 13 13 9 22-3 8-13 12-22 9z m-455 164c9 3 14 13 11 22-2 5-3 11-3 18 0 2 0 5 0 7 2 9-5 18-14 19-9 1-18-6-19-15 0-3 0-7 0-11 0-10 1-20 4-29 2-7 9-11 16-11 2 0 3 0 5 0z m-66-469h-33c-9 0-17-7-17-16s8-17 17-17h33c9 0 17 7 17 17s-8 16-17 16z m168 124c6 0 12 3 15 10 4 8 0 18-8 22-8 3-15 9-21 15-6 7-16 8-23 2-7-6-8-16-2-23 8-11 20-19 32-25 2-1 4-1 7-1z m377 314c-12 7-25 11-39 12-9 1-17-6-18-15 0-9 6-17 16-18 8-1 17-3 24-8 3-1 6-2 8-2 6 0 12 3 15 8 5 8 2 18-6 23z m-445-438h-33c-9 0-17-7-17-16s8-17 17-17h33c9 0 17 7 17 17s-8 16-17 16z m42 220c1 8 5 16 10 23 5 8 4 18-4 24-7 5-17 3-23-4-8-11-14-24-16-37-2-9 4-18 13-20 1 0 2 0 3 0 8 0 15 6 17 14z m274 497c50 0 91 41 91 92s-41 91-91 91-92-41-92-91 41-92 92-92z m0 150c32 0 58-26 58-58s-26-59-58-59-59 27-59 59 26 58 59 58z m-609-417c-55 0-100-44-100-100s45-100 100-100 100 45 100 100-45 100-100 100z m0-166c-36 0-66 30-66 66s30 67 66 67 67-30 67-67-30-66-67-66z" horiz-adv-x="1000" />

<glyph glyph-name="bluetooth" unicode="&#xe809;" d="M767 568l-320 282v-363l-143 144-71-71 202-202-202-201 71-71 143 143v-379l320 318-192 192 192 208z m-220-490v168l81-81-81-87z m81 487l-81-87v168l81-81z" horiz-adv-x="1000" />

<glyph glyph-name="bluetooth-signal-indicator" unicode="&#xe80a;" d="M610 350l115-115c15 35 20 75 20 115 0 40-10 80-20 115l-115-115z m265 265l-60-65c30-60 50-130 50-200s-20-140-50-200l60-60c50 75 75 170 75 265s-25 185-75 260z m-190-50l-285 285h-50v-380l-230 230-70-70 280-280-280-280 70-70 230 230v-380h50l285 285-215 215 215 215z m-235 95l95-95-95-95v190z m95-525l-95-95v190l95-95z" horiz-adv-x="1000" />

<glyph glyph-name="radio-control" unicode="&#xe80b;" d="M774 468l-153 153 24 24 153-153-24-24z m-243 143l-236 236-81-81 236-236 81 81z m233-233l-82-81 237-236 81 81-236 236z m-138-104l161 161-199 199-162-161 72-71-20-20c-76 58-167 69-216 20-26-26-35-65-29-106h29c-6 31-2 58 13 73 31 31 112 1 180-67 68-68 98-149 66-180-15-15-44-19-78-12v-26c42-6 81 3 108 29 48 48 39 137-17 212l21 20 71-71z m-577-5h-49c0-111 43-216 122-294 78-79 183-122 294-122v49c-94 0-188 36-260 107-71 72-107 166-107 260z m367-302v49c-65 0-130 24-179 74-49 49-74 114-74 179h-49c0-77 29-155 88-214 59-59 137-88 214-88z m-95 207c-26 26-39 60-39 95l-49 0c0-47 18-94 53-130 36-36 83-54 130-53l0 48c-34 0-69 14-95 40z m54 54c11-11 26-17 41-17v58h-58c0-15 6-30 17-41z" horiz-adv-x="1000" />

<glyph glyph-name="telephone" unicode="&#xe80c;" d="M760 189c-32 32-73 32-106 0-24-25-49-50-73-75-7-6-13-8-21-3-16 8-33 16-48 25-72 45-132 103-186 169-26 32-49 67-66 106-3 8-3 13 4 20 25 23 49 48 73 73 34 34 34 74 0 108-19 20-39 39-58 58-20 20-40 40-60 60-33 32-74 32-106 0-25-25-49-50-74-74-24-22-36-49-38-81-4-52 9-101 26-149 37-98 93-186 160-266 92-109 201-195 328-257 58-28 117-49 182-53 45-2 83 9 114 44 22 23 45 45 68 68 33 34 33 74 0 108-39 39-79 79-119 119z m-39 165l76 13c-12 71-45 135-96 186-53 53-121 87-195 97l-11-77c58-8 110-34 151-75 40-40 65-89 75-144z m120 334c-89 89-201 145-325 162l-11-77c107-15 204-64 281-140 72-73 120-164 137-265l77 13c-20 117-75 223-159 307z" horiz-adv-x="1000" />

<glyph glyph-name="training" unicode="&#xe80e;" d="M995 542c-9 13-27 17-40 8-8-5-170-112-178-117-14-9-17-27-8-40 8-14 27-18 40-9l47 31-86-389h-246c0 0 1 1 1 1l58 176c13 38-1 79-34 101l-112 74 29 58 31-31c16-17 38-26 62-26h117c48 0 88 40 88 88 0 49-40 88-88 88h-81l-59 59c62 3 112 54 112 117 0 64-52 119-117 119-66 0-118-55-118-119 0-21 6-41 16-59h-162c-14 0-27-3-39-9l-118-59c-43-21-61-74-39-117 22-44 75-61 118-40l99 50h12c-72-146-46-95-95-194l-145-47c-46-16-71-65-55-111 15-47 65-71 111-56l179 59c22 7 40 23 51 44l13 27 36-24-37-112c-6-19-6-39 1-57h-210c-49 0-88-40-88-88s39-88 88-88h703c48 0 88 39 88 88s-40 88-88 88h-22l96 435 61 40c13 9 17 27 8 41z m-464 249c31 0 58-27 58-60 0-32-26-59-58-59-33 0-59 27-59 59 0 33 27 60 59 60z m-250-236c-5 0-9-1-13-3l-105-52c-15-8-32-2-39 13-8 14-2 32 13 39l117 59c4 2 8 3 13 3h91l-29-59h-48z m12-337c-3-7-9-12-17-15l-179-58c0 0 0 0 0 0-15-6-32 3-37 18-5 16 4 32 19 37l156 51c7 2 13 8 17 15l10 20c4-4 9-8 14-11l34-23-17-34z m15 106c-10 7-15 19-12 31 84 170 119 243 119 243 9 17 33 21 47 7l109-108h105v0c16 0 29-14 29-30 0-16-13-29-29-29h-117c-8 0-16 3-21 9l-89 88-87-177 154-103c11-7 16-21 12-33l-59-176c-5-16-22-24-37-19-15 5-23 22-18 37l51 155c-6 4-151 101-157 105z m544-357c16 0 29-13 29-29 0-16-13-29-29-29h-703c-17 0-30 13-30 29 0 16 13 29 30 29 30 0 673 0 703 0z" horiz-adv-x="1000" />

<glyph glyph-name="running" unicode="&#xe80f;" d="M983 632l-2 3c-23 23-61 23-84 0l-90-91c-5-5-12-5-17 0l-126 116c-13 11-29 18-45 18h-188c-4 0-9-2-12-5l-159-151c-23-24-25-61-4-84 12-12 27-19 44-19h0c17 0 32 7 43 19l113 119h40l-262-293h-162c-38 0-70-29-72-65-1-20 6-38 19-52 13-13 31-21 50-21h241c5 0 10 2 13 5l124 132 103-108-31-201c-8-33 8-67 38-80 9-5 19-7 29-7 10 0 21 3 30 7 19 10 32 26 37 47l53 288c1 6 0 11-4 15l-143 143 113 114 80-79c22-23 60-23 82 0l149 148c11 11 17 26 17 41 0 16-6 30-17 41z m-190-6c57 0 103 46 103 103 0 57-46 104-103 104-57 0-104-47-104-104 0-57 47-103 104-103z" horiz-adv-x="1000" />

<glyph glyph-name="pedestrian-walking" unicode="&#xe810;" d="M476 689c22 0 40 9 55 25s22 35 21 57c-1 22-9 41-24 57-16 15-35 23-57 22s-40-9-55-25-22-36-22-58 8-41 24-56 36-23 58-22z m268-269l-116 63-96 153c-18 23-41 34-68 34-18 0-36-7-53-23l-145-147c-4-5-7-12-8-19l-19-163v-4c0-10 3-19 10-26 7-7 16-11 26-11s18 4 24 11c7 7 11 15 12 23l15 141 51 51-47-391-83-185c-3-9-4-17-4-24 0-15 5-28 16-39s24-15 39-14c21 0 37 10 47 30l89 200c0 1 1 4 2 7 2 4 3 7 5 10 1 3 2 5 2 8l10 96 92-315c10-25 27-37 53-36 14 0 26 6 37 16s16 24 16 39c0 2 0 4-1 6s-1 4-1 5l-128 436 15 142 36-57c3-5 7-8 11-11l125-70c9-3 14-4 17-4 10 0 19 4 26 11 7 8 10 17 10 27 0 13-5 23-17 30z" horiz-adv-x="1000" />

<glyph glyph-name="measuring-tape" unicode="&#xe811;" d="M971 291h-324v206c0 148-148 263-323 263-179 0-324-118-324-263v-323c0-130 133-234 295-234h676c16 0 29 13 29 29v293c0 16-13 29-29 29z m-647 411c146 0 264-92 264-205 0-114-118-206-264-206-72 0-139 23-190 63-48 38-75 89-75 143 0 113 121 205 265 205z m264-357v-54h-61c8 6 15 11 23 17 14 11 27 24 38 37z m353-347h-60v147c0 16-13 29-29 29s-30-13-30-29v-147h-58v88c0 17-13 30-30 30s-29-13-29-30v-88h-58v147c0 16-14 29-30 29s-29-13-29-29v-147h-59v88c0 17-13 30-29 30s-29-13-29-30v-88h-59v147c0 16-13 29-29 29s-29-13-29-29v-147h-59v88c0 17-13 30-29 30s-30-13-30-30v-82c-20 4-40 10-58 18v123c0 16-13 29-30 29s-29-13-29-29v-88c-39 33-60 74-60 117v172c58-69 156-113 265-113h0 617v-235z m-617 645c-111 0-205-67-205-146s94-147 205-147 205 67 205 147-94 146-205 146z m0-234c-82 0-146 47-146 88s64 87 146 87c83 0 147-47 147-87s-64-88-147-88z m59 117h-117c-17 0-30-13-30-29s13-30 30-30h117c16 0 29 13 29 30s-13 29-29 29z" horiz-adv-x="1000" />

<glyph glyph-name="barometer-bold" unicode="&#xe812;" d="M500 579c12 0 21 10 21 21v42c0 11-9 21-21 21s-21-10-21-21v-42c0-11 10-21 21-21z m-169 23c-6 10-19 13-29 8-10-6-13-19-7-29l20-36c4-7 11-10 18-10 4 0 8 0 11 2 10 6 13 19 7 29l-20 36z m-109-151l-36 21c-10 6-23 3-29-7-6-10-2-23 8-29l36-21c3-2 7-2 10-2 8 0 15 3 18 10 6 10 3 23-7 28z m613-354l-36 21c-10 6-23 2-28-8-6-10-3-22 7-28l36-21c4-2 7-3 11-3 7 0 14 4 18 11 6 10 2 23-8 28z m-647 170c0 11-10 21-21 21h-42c-11 0-21-10-21-21 0-12 10-21 21-21h42c11 0 21 9 21 21z m625 0c0-12 9-21 20-21h42c12 0 21 9 21 21 0 11-9 21-21 21h-42c-11 0-20-10-20-21z m-612-149l-36-21c-10-5-14-18-8-28 4-7 11-11 18-11 4 0 7 1 11 3l36 21c10 6 13 18 7 28-5 10-18 14-28 8z m613 354l-36-21c-10-5-13-18-7-28 4-7 11-10 18-10 3 0 7 0 10 2l36 21c10 6 14 19 8 29-6 10-19 13-29 7z m-116 138c-10 5-23 2-28-8l-21-36c-6-10-3-23 7-29 4-2 7-2 11-2 7 0 14 3 18 10l21 36c5 10 2 23-8 29z m-177-112c-1 10-10 19-21 19s-20-9-21-19l-37-421c-16-16-25-37-25-60 0-46 37-84 83-84s83 38 83 84c0 23-9 44-25 60l-37 421z m-21 269c-276 0-500-225-500-500 0-84 21-166 61-239 3-5 7-9 12-10 6-2 11-1 16 1l37 20c10 6 14 18 8 29-33 60-51 129-51 199 0 229 187 416 417 416s417-187 417-416c0-70-18-139-51-199-5-11-2-23 8-29l37-20c3-1 6-2 10-2 2 0 4 0 6 1 5 1 10 5 12 10 40 73 61 155 61 239 0 275-224 500-500 500z" horiz-adv-x="1000" />

<glyph glyph-name="miscellaneous" unicode="&#xe813;" d="M500 850c-275 0-500-225-500-500s225-500 500-500 500 225 500 500-225 500-500 500z m0-917c-229 0-417 188-417 417s188 417 417 417 417-188 417-417-188-417-417-417z m0 792c-208 0-375-167-375-375 0-104 42-196 108-267l30 30c-59 62-96 145-96 237 0 183 150 333 333 333s333-150 333-333c0-92-37-175-95-237l29-30c66 71 108 163 108 267 0 208-167 375-375 375z m42-512v345c0 25-17 42-42 42s-42-17-42-42v-345c-25-13-41-42-41-71 0-46 37-84 83-84s83 38 83 84c0 29-16 58-41 71z m-42-113c-25 0-42 17-42 42s17 41 42 41 42-16 42-41-17-42-42-42z" horiz-adv-x="1000" />

<glyph glyph-name="barometer" unicode="&#xe814;" d="M854 704c-95 94-220 146-354 146s-259-52-354-146c-94-95-146-220-146-354s52-259 146-354c95-94 220-146 354-146s259 52 354 146c94 95 146 220 146 354s-52 259-146 354z m-354-822c-258 0-468 210-468 468s210 468 468 468 468-210 468-468-210-468-468-468z m0 904c-240 0-436-195-436-436s196-436 436-436 436 196 436 436-195 436-436 436z m0-840c-223 0-404 181-404 404s181 404 404 404 404-181 404-404-181-404-404-404z m287 568c0 1 0 1 0 1-1 1-1 1-1 2-29 49-70 90-119 119-1 0-1 0-2 1 0 0 0 0-1 0-48 28-104 44-164 44-60 0-116-16-164-44-1 0-1 0-1 0-1-1-1-1-2-1-49-29-90-70-119-119 0-1 0-1 0-2-1 0-1 0-1-1-28-48-44-104-44-164 0-58 16-115 45-165 0-2 8-14 23-5l44 25c8 5 11 15 6 22-4 8-14 10-22 6 0 0-18-11-31-18-19 37-30 77-32 119h36c9 0 16 7 16 16s-7 16-16 16h-36c2 43 13 83 32 119l31-18c3-1 6-2 8-2 6 0 11 3 14 8 5 8 2 17-6 22l-31 18c22 35 52 65 87 87l18-31c3-5 9-8 14-8 3 0 6 0 8 2 8 4 10 14 6 22l-18 32c36 18 76 29 119 32v-37c0-9 7-16 16-16s16 7 16 16v37c43-3 83-14 119-32l-18-32c-4-8-2-18 6-22 2-2 5-2 8-2 5 0 11 3 14 8l18 31c35-22 65-52 87-87l-31-18c-8-5-11-14-6-22 3-5 8-8 14-8 2 0 5 1 8 2l32 18c18-36 29-76 32-119h-37c-9 0-16-7-16-16s7-16 16-16h37c-3-42-14-82-32-119l-32 18c-8 4-18 2-22-6-5-7-2-17 6-22l46-26c2-2 5-2 8-2 5 0 11 3 14 8 29 50 44 107 44 165 0 60-16 116-44 164z m-233-66c-7 4-17 1-21-7l-25-44c-3 1-5 1-8 1-26 0-48-22-48-48 0-3 0-6 1-9l-132-76c-8-4-11-14-6-22 3-5 8-8 14-8 2 0 5 1 8 2l132 77c8-7 19-12 31-12 21 0 38 13 45 31l51 0c0 0 0 0 0 0 8 0 16 7 16 15 0 21-5 40-15 58-10 17-25 32-43 42z m-54-114c-9 0-16 7-16 16s7 16 16 16c3 0 5-1 8-2 0 0 0 0 0 0 5-3 8-8 8-14 0 0 0 0 0 0 0-9-7-16-16-16z m45 31c-2 6-5 12-9 17l16 29c7-6 13-13 17-21 5-8 8-16 9-25l-33 0z m11-314h-112c-8 0-16-7-16-16s8-16 16-16h112c8 0 16 7 16 16s-8 16-16 16z m-22 32c9 0 16 7 16 16s-7 16-16 16h-68c-9 0-16-7-16-16s7-16 16-16h68z" horiz-adv-x="1000" />

<glyph glyph-name="barometer-" unicode="&#xe815;" d="M535 385l-17 221c-4 50-8 58-18 58s-14-8-18-58l-16-221c-14-10-22-26-22-44 0-21 11-39 29-49l8-96c4-45 9-53 19-53s15 8 19 53l9 96c17 10 28 28 28 49 0 18-8 34-21 44z m-35 216l15-206c-5 1-10 2-15 2s-10-1-15-2l15 206z m1-404c-1-2-1-3-1-5 0 2 0 3 0 5l-8 88c2 0 5-1 8-1s6 1 9 1l-8-88z m-1 539c-213 0-386-173-386-386s173-386 386-386 386 173 386 386-173 386-386 386z m0-735c-192 0-349 157-349 349s157 349 349 349 349-157 349-349-157-349-349-349z m0 849c-276 0-500-224-500-500s224-500 500-500 500 224 500 500-224 500-500 500z m0-963c-255 0-463 208-463 463s208 463 463 463 463-208 463-463-208-463-463-463z m-183 639l11 10c7 7 5 15-5 19l-24 9c-9 3-14-2-10-11l9-23c3-10 12-12 19-4z m361 0c7-8 16-6 20 4l9 23c4 9-1 14-11 11l-24-9c-9-4-11-12-4-19l10-10z m-358-351c-8 7-16 5-20-4l-9-23c-4-9 1-14 10-11l24 9c10 3 12 12 5 19l-10 10z m380-4c-4 9-12 11-20 4l-10-10c-7-7-5-16 5-19l24-9c9-3 14 2 10 11l-9 23z" horiz-adv-x="1000" />

<glyph glyph-name="heart-science-technology" unicode="&#xe817;" d="M917 658c-109 109-284 109-392 0-8-8-21-20-29-33-8 13-17 21-29 33-104 109-279 109-384 0-108-108-108-283 0-391l363-363 54-54 54 54 363 363c108 108 108 283 0 391z m-417-712c0 0-337 362-362 362h216l63 105 166-225 84 120h196c-25 0-363-362-363-362z m392 404h-246l-63-87-166 216-84-129h-225c-45 83-33 179 30 246 75 75 200 79 279 4 16-17 83-83 83-83s67 66 83 83c75 75 200 71 280-8 66-63 75-159 29-242z" horiz-adv-x="1000" />

<glyph glyph-name="thermometer-weather" unicode="&#xe818;" d="M452 233v598c0 10-9 19-19 19h-77c-11 0-19-9-19-19v-598c-37-9-58-43-58-94v-193c0-53 43-96 96-96h39c53 0 96 43 96 96v193c0 51-22 85-58 94z m19-287c0-32-26-58-57-58h-39c-32 0-58 26-58 58v193c0 57 29 57 39 57 10 0 19 9 19 19v597h39v-597c0-10 8-19 19-19 9 0 38 0 38-57v-193z m154 846h77c11 0 19 9 19 20 0 10-8 19-19 19h-77c-11 0-19-9-19-19 0-11 8-20 19-20z m77-192h-77c-11 0-19-9-19-19 0-11 8-19 19-19h77c11 0 19 8 19 19 0 10-8 19-19 19z m0-231h-77c-11 0-19-8-19-19s8-19 19-19h77c11 0 19 8 19 19s-8 19-19 19z m0-230h-77c-11 0-19-9-19-20 0-10 8-19 19-19h77c11 0 19 9 19 19 0 11-8 20-19 20z m0-231h-77c-11 0-19-9-19-20 0-10 8-19 19-19h77c11 0 19 9 19 19 0 11-8 20-19 20z m-346 57c0-21 12-38 33-38h10c21 0 34 17 34 38v97h-77v-97z" horiz-adv-x="1000" />

<glyph glyph-name="heart_monitor" unicode="&#xe819;" d="M131 416c1 0 3 1 5 1 10 3 17 13 14 24-4 16-6 33-6 50 0 98 77 179 171 179 97 0 168-68 169-161 0-11 9-20 20-20s20 9 20 20c1 93 72 161 169 161 94 0 171-81 171-179 0-17-2-33-6-49-2-11 4-22 15-24 11-3 21 4 24 15 4 19 7 38 7 58 0 120-95 219-211 219-86 0-156-44-189-113-33 69-103 113-189 113-116 0-211-99-211-219 0-20 3-40 7-59 3-9 11-16 20-16z m632-109l-259-258-257 256c-8 8-21 8-28 0-8-8-8-21 0-28l271-271c4-3 9-5 14-5s10 2 14 5l273 272c8 8 8 21 0 29-7 7-20 7-28 0z m192 78v0h0c-5 4-11 6-17 6-6 0-12-2-17-6h-291c-5 4-11 6-17 6-15 0-28-12-28-27 0 0 1-1 1-2l-78-103-122 243c0 2 1 4 1 7 0 15-13 27-27 27-15 0-28-12-28-27 0-1 1-2 1-2l-92-122h-172c-4 4-10 6-17 6-15 0-27-12-27-27 0-15 12-27 27-27 8 0 15 3 19 8h180c6 0 12 3 16 8l89 118 122-243c0-3-1-6-1-9 0-15 12-27 27-27 15 0 27 12 27 27 0 2 0 3 0 4l86 114c6 1 11 4 15 8h287c5-5 11-8 19-8 15 0 27 12 27 27 0 9 0 16-10 21z" horiz-adv-x="1000" />

<glyph glyph-name="pages" unicode="&#xe81a;" d="M680 680h-10v15c0 11-9 15-20 15h-110c0 30-18 40-40 40s-40-10-40-40h-110c-11 0-20-4-20-15v-15h-10c-66 0-120-49-120-115v-500c0-66 54-125 120-125h360c66 0 120 59 120 125v500c0 66-54 115-120 115z m-180 55c11 0 20-9 20-20s-9-20-20-20-20 9-20 20 9 20 20 20z m260-670c0-44-36-85-80-85h-360c-44 0-80 41-80 85v500c0 44 36 75 80 75h10l-10-40c0-11 9-20 20-20h320c11 0 20 9 20 20l-10 40h10c44 0 80-31 80-75v-500z m-470 315h100v100h-100v-100z m20 80h60v-60h-60v60z m-20-230h100v100h-100v-100z m20 80h60v-60h-60v60z m-20-240h100v100h-100v-100z m20 80h60v-60h-60v60z" horiz-adv-x="1000" />

<glyph glyph-name="notes" unicode="&#xe81b;" d="M918 489l-28 28-18-17-7 7-28-27-97-96v166c0 66-52 120-118 120h-12v10c0 11-7 20-18 20h-110c0 22-18 40-40 40s-40-18-40-40h-110c-11 0-22-9-22-20v-10h-8c-66 0-122-54-122-120v-500c0-66 56-120 122-120h360c66 0 118 54 118 120v249l131 131h1l35 35-7 7 18 17z m-476 231c11 0 20-9 20-20s-9-20-20-20-20 9-20 20 9 20 20 20z m258-670c0-44-34-80-78-80h-360c-44 0-82 36-82 80v500c0 44 38 80 82 80h10l-10-40c0-11 9-20 20-20h320c11 0 20 9 20 20l-10 40h10c44 0 78-36 78-80v-206l-102-104h-258v-20h238l-22-23-18-39 0 0-18-39 77 36 103 104v-209z m-118 106l-29-13-9 9 13 30 23-24 2-2z m292 289l-28 28 17 18-2-2 29-28 3 3 0 0-19-19z" horiz-adv-x="1000" />

<glyph glyph-name="celsius" unicode="&#xe81c;" d="M458 746c0 57-46 104-104 104s-104-47-104-104v-649c-27-27-42-63-42-101 0-81 66-146 146-146 81 0 146 65 146 146 0 38-15 74-42 101v649z m-104-854c-57 0-104 46-104 104 0 29 12 57 35 77 4 4 7 10 7 15v658c0 34 28 62 62 62 35 0 63-28 63-62v-658c0-5 2-11 7-15 22-20 34-48 34-77 0-58-46-104-104-104z m21 163v358c0 11-9 20-21 20-11 0-21-9-21-20v-358c-24-9-41-32-41-59 0-35 28-63 62-63 35 0 63 28 63 63 0 27-18 50-42 59z m-21-80c-11 0-21 9-21 21 0 11 10 21 21 21 12 0 21-10 21-21 0-12-9-21-21-21z m-166 208h-125c-12 0-21-9-21-20 0-12 9-21 21-21h125c11 0 20 9 20 21 0 11-9 20-20 20z m0 84h-42c-12 0-21-10-21-21 0-12 9-21 21-21h42c11 0 20 9 20 21 0 11-9 21-20 21z m0 83h-42c-12 0-21-9-21-21 0-11 9-21 21-21h42c11 0 20 10 20 21 0 12-9 21-20 21z m-125 42h125c11 0 20 9 20 21s-9 20-20 20h-125c-12 0-21-9-21-20s9-21 21-21z m0 250h125c11 0 20 9 20 21s-9 20-20 20h-125c-12 0-21-9-21-20s9-21 21-21z m125-125h-42c-12 0-21-10-21-21 0-12 9-21 21-21h42c11 0 20 9 20 21 0 11-9 21-20 21z m0 83h-42c-12 0-21-9-21-21 0-11 9-21 21-21h42c11 0 20 10 20 21 0 12-9 21-20 21z m458-83h42c34 0 62-28 62-63 0-11 9-21 21-21s21 10 21 21c0 58-47 104-104 104h-42c-58 0-104-46-104-104v-166c0-58 46-105 104-105h42c57 0 104 47 104 105 0 11-10 20-21 20s-21-9-21-20c0-35-28-63-62-63h-42c-35 0-63 28-63 63v166c0 35 28 63 63 63z m250 41c-35 0-63-28-63-62 0-35 28-63 63-63s62 28 62 63c0 34-28 62-62 62z m0-83c-12 0-21 9-21 21 0 11 9 21 21 21s21-10 21-21c0-12-10-21-21-21z" horiz-adv-x="1000" />

<glyph glyph-name="monitoring-heart-rate" unicode="&#xe81d;" d="M899 717c-29 16-62 25-95 25-51 0-100-20-137-55-59 57-156 71-231 30-62-34-101-100-101-172 0-20 3-41 9-59 2-10 6-22 12-33h-16c-10 0-19-9-19-20 0-10 9-19 19-19h162c7 0 13 4 17 10l20 33 50-78c4-6 10-9 16-9 1 0 2 0 2 0 8 1 14 6 16 13l50 133 33-89c3-8 10-13 18-13h95c11 0 19 9 19 19 0 11-8 20-19 20h-82l-46 125c-3 8-10 13-18 13l0 0c-8 0-16-5-18-13l-54-146-47 71c-3 6-10 10-16 9-7 0-13-3-16-9l-30-50h-93c-8 15-15 29-18 44-5 15-8 32-8 48 0 58 31 111 82 139 23 12 49 19 76 19 47 0 91-21 122-57 3-4 9-7 14-7l0 0c6 0 12 3 15 7 30 36 75 57 122 57 26 0 53-7 76-19 50-28 82-81 82-139 0-16-3-33-9-50-25-113-236-258-286-291-32 22-134 92-208 170-8 7-20 8-27 0-8-7-8-19-1-27 5-5 9-10 14-15-41-8-82-21-123-37-55-24-105-53-148-86l-108 217 118 159 77-54c8-6 20-4 26 5 7 8 4 20-4 26l-92 65c-9 6-21 4-27-4l-36-49-79 67c-8 7-20 6-27-2-7-8-6-20 2-27l81-69-76-103c-5-6-5-14-2-20l117-236c-49-45-85-94-99-142-2-6-1-12 3-17 4-5 9-7 15-7h617c5 0 10 2 14 5 67 71 94 145 75 206 85 64 202 166 221 256 7 19 10 39 10 60 0 72-39 137-101 172z m-228-661h-580c36 77 129 154 246 203 47 20 96 33 143 41 83-75 173-132 177-135 3-2 7-3 11-3s7 1 10 3c3 2 26 17 58 40 7-43-16-96-65-149z m291-78c0-11-8-20-19-20h-924c-10 0-19 9-19 20 0 10 9 19 19 19h924c11 0 19-9 19-19z m-419 236c6-9 4-21-5-27l-64-43h9c11 0 19-9 19-20 0-10-8-19-19-19h-115c-11 0-20 9-20 19 0 11 9 20 20 20h38l110 75c9 6 21 3 27-5z" horiz-adv-x="1000" />

<glyph glyph-name="thermometer" unicode="&#xe81e;" d="M688 97v649c0 57-47 104-105 104s-104-47-104-104v-649c-26-27-41-63-41-101 0-81 65-146 145-146 81 0 146 65 146 146 0 38-15 74-41 101z m-105-205c-57 0-104 46-104 104 0 29 13 57 35 77 4 4 7 10 7 15v658c0 34 28 62 62 62 35 0 63-28 63-62v-658c0-5 2-11 7-15 22-20 35-48 35-77 0-58-47-104-105-104z m21 163v358c0 11-9 20-21 20-11 0-20-9-20-20v-358c-25-9-42-32-42-59 0-35 28-63 62-63 35 0 63 28 63 63 0 27-18 50-42 59z m-21-80c-11 0-20 9-20 21 0 11 9 21 20 21 12 0 21-10 21-21 0-12-9-21-21-21z m-166 208h-125c-12 0-21-9-21-20 0-12 9-21 21-21h125c11 0 21 9 21 21 0 11-10 20-21 20z m0 84h-42c-11 0-21-10-21-21 0-12 10-21 21-21h42c11 0 21 9 21 21 0 11-10 21-21 21z m0 83h-42c-11 0-21-9-21-21 0-11 10-21 21-21h42c11 0 21 10 21 21 0 12-10 21-21 21z m-125 42h125c11 0 21 9 21 21s-10 20-21 20h-125c-12 0-21-9-21-20s9-21 21-21z m0 250h125c11 0 21 9 21 21s-10 20-21 20h-125c-12 0-21-9-21-20s9-21 21-21z m125-125h-42c-11 0-21-10-21-21 0-12 10-21 21-21h42c11 0 21 9 21 21 0 11-10 21-21 21z m0 83h-42c-11 0-21-9-21-21 0-11 10-21 21-21h42c11 0 21 10 21 21 0 12-10 21-21 21z" horiz-adv-x="1000" />

<glyph glyph-name="satellite" unicode="&#xe81f;" d="M224 378c-84-84-84-220 0-304 84-84 220-84 304 0 1 1 2 2 3 3l14-14c-1-1-1-2-3-4-91-92-241-92-333 0-92 92-92 242 0 334 1 1 3 2 4 3l14-15c-1-1-2-2-3-3z m366-367c-118-118-310-118-429 0-118 119-118 311 0 430 1 1 3 2 4 3l-15 14c-1-1-2-2-3-3-126-126-126-332 0-458 126-126 332-126 458 0 1 1 2 2 3 3l-14 15c-2-1-2-2-4-4z m-292 299l-14 15c-2-1-3-2-4-3-53-53-53-139 0-192 53-53 139-53 192 0 1 1 2 2 3 4l-15 14c-1-1-1-2-3-4-44-45-118-45-163 0-44 45-44 118 0 163 1 2 3 2 4 3z m355 21l-52-51-22 22 123 123c10 9 8 27-4 39l-84 84c-12 12-29 14-39 4l-123-123-22 22 51 52-347 347-134-134 347-347 52 51 22-22-37-37c-10-10-8-27 4-39l29-29-51-51-23 23c-1-1-2-2-3-3-20-20-20-52 0-72 20-20 52-20 72 0 1 1 2 2 3 3l-23 23 51 51 29-29c12-12 29-14 39-4l37 37 22-22-51-52 347-347 134 134-347 347z" horiz-adv-x="1000" />

<glyph glyph-name="mountaine-light" unicode="&#xe820;" d="M998-100l-336 651c-3 6-9 10-16 10-7 0-13-4-16-10l-80-156-128 249v49h126c10 0 18 9 18 18v97c0 10-8 18-18 18h-144c-10 0-18-8-18-18v-164l-130-251c0 0 0 0 0 0l-254-493c-3-5-3-12 1-17 3-6 9-9 15-9h771c7 0 12 3 16 9 3 5 3 12 0 17l-229 445 8-8c3-3 8-5 12-5 5 0 10 2 13 5l36 36 15-15c7-7 18-7 25 0 7 7 7 18 0 25l-28 28c-7 7-18 7-25 0l-36-35-10 10 60 117 306-593h-72c-10 0-19-8-19-18 0-10 9-18 19-18h102c6 0 12 3 15 9 4 5 4 12 1 17z m-576 890h108v-60h-108v60z m-18-190l109-212-13-12-35 35c-7 7-19 7-26 0l-35-35-36 35c-7 7-18 7-25 0l-36-35-12 12 109 212z m356-690h-712l229 445 18-18c7-7 18-7 25 0l35 36 36-36c7-7 18-7 25 0l36 36 35-36c4-3 8-5 13-5 5 0 9 2 13 5l17 18 230-445z" horiz-adv-x="1000" />

<glyph glyph-name="mountains" unicode="&#xe821;" d="M997-13l-268 535c-12 24-47 24-59 0l-59-118-170 339c-12 25-47 25-60 0-10-20-367-736-377-756-12-22 5-48 29-48 25 0 910 0 934 0 24 0 41 26 30 48z m-586 667l136-271-26-30-70 80c-13 16-37 16-50 0l-20-23-58 67 88 177z m-324-649l204 407 65-75c13-15 37-15 50 0l20 24 70-81c13-15 37-15 50 0l33 38c8-16 150-302 156-313h-648z m723 0v0c-5 9-158 316-162 324l51 103 214-427h-103z" horiz-adv-x="1000" />
</font>
</defs>
</svg>
