<svg xmlns="http://www.w3.org/2000/svg" viewBox="0 0 175.65 38"><defs><style>.a{opacity:0.5;}.b{fill:#f8f8f8;}.c{fill:#081439;}</style></defs><g class="a" transform="translate(-1593 -5569)"><circle class="b" cx="19" cy="19" r="19" transform="translate(1593 5569)"/><path class="c" d="M30.878,28.3,29.2,26.626l-2.01,2.01,1.01,1.053L21.689,36.2l-6.557-6.509,6.557-6.557,1.2,1.2,2.01-2.01L23.029,20.5H20.3l-7.8,7.8v2.776l7.8,7.8h2.728l7.849-7.8Z" transform="translate(1586.482 5558.311)"/><path class="c" d="M39.077,20.5H36.3l-7.8,7.8v2.776l1.675,1.675,2.01-2.01-1.053-1.053,6.557-6.557,6.557,6.557L37.689,36.2l-1.2-1.2-2.01,2.058,1.821,1.82h2.776l7.8-7.8V28.3Z" transform="translate(1578.14 5558.311)"/><path class="b" d="M92.348,11.1a1.147,1.147,0,0,1,1.1-1.1h9.189a6.08,6.08,0,0,1,4.977,1.962,4.255,4.255,0,0,1,.909,2.728,3.8,3.8,0,0,1-1.531,2.919,3.8,3.8,0,0,1,2.154,3.589,4.382,4.382,0,0,1-1.723,3.733,6.93,6.93,0,0,1-4.259,1.292H93.4a1.173,1.173,0,0,1-.766-.287.952.952,0,0,1-.335-.766V11.1Zm4.212,5.217h6.03a1.552,1.552,0,0,0,1.149-.431,1.593,1.593,0,0,0,.431-1.2,1.593,1.593,0,0,0-.431-1.2,1.552,1.552,0,0,0-1.149-.431H96.56Zm0,6.844h6.461a1.8,1.8,0,0,0,1.34-.526,2.154,2.154,0,0,0,.479-1.436,2.008,2.008,0,0,0-.479-1.436,1.727,1.727,0,0,0-1.34-.526H96.559Z" transform="translate(1544.874 5563.786)"/><path class="b" d="M129.348,25.223l2.824-10.72c.766-2.919,3.254-4.4,7.466-4.4h6.078a.724.724,0,0,1,.67.335,1.516,1.516,0,0,1,.287.718V25.223a.861.861,0,0,1-.335.718,1.087,1.087,0,0,1-.766.287h-2.058a1.087,1.087,0,0,1-.766-.287,1.01,1.01,0,0,1-.287-.766V22.352h-8.04l-.766,2.824a1.448,1.448,0,0,1-1.34,1.053h-2.2a.755.755,0,0,1-.622-.239,1.083,1.083,0,0,1-.191-.431C129.3,25.415,129.348,25.319,129.348,25.223Zm5.935-6.078h7.179V13.259h-3.207a2.837,2.837,0,0,0-1.866.622,3.141,3.141,0,0,0-1.1,1.675Z" transform="translate(1525.582 5563.733)"/><path class="b" d="M172,19.811V11.1a1.173,1.173,0,0,1,.287-.766.952.952,0,0,1,.766-.335h2.106a1.147,1.147,0,0,1,1.1,1.1v8.71a3.765,3.765,0,0,0,.718,2.489,2.93,2.93,0,0,0,2.249.814h1.819a2.93,2.93,0,0,0,2.249-.814,3.679,3.679,0,0,0,.718-2.489V11.1a1.173,1.173,0,0,1,.287-.766,1.129,1.129,0,0,1,.766-.335h2.106a.952.952,0,0,1,.766.335,1.232,1.232,0,0,1,.335.766v8.71a6.31,6.31,0,0,1-1.819,4.786c-1.2,1.149-2.967,1.675-5.312,1.675h-2.01a7.6,7.6,0,0,1-5.312-1.675A6.139,6.139,0,0,1,172,19.811Z" transform="translate(1503.318 5563.786)"/><path class="b" d="M210.3,21.956a1.188,1.188,0,0,1,.383-.957,1.273,1.273,0,0,1,.766-.287h1.34a1.665,1.665,0,0,1,1.532,1.1c.335.718,1.149,1.1,2.393,1.1l3.924.1c1.34,0,1.962-.431,1.962-1.292,0-.67-.814-1.149-2.441-1.531-.718-.191-1.532-.335-2.393-.526s-1.723-.383-2.584-.622a15.561,15.561,0,0,1-2.393-.909,4.7,4.7,0,0,1-1.771-1.436,3.709,3.709,0,0,1-.67-2.154,4.045,4.045,0,0,1,1.627-3.494c1.053-.814,2.919-1.244,5.552-1.244l2.872.048a7.425,7.425,0,0,1,4.164,1.2,3.479,3.479,0,0,1,1.867,2.967,1.187,1.187,0,0,1-.383.957,1.389,1.389,0,0,1-.766.287h-1.34a1.665,1.665,0,0,1-1.531-1.1c-.335-.718-1.149-1.1-2.393-1.1l-3.4-.048c-1.34,0-1.962.431-1.962,1.292,0,.479.431.861,1.244,1.149a23.023,23.023,0,0,0,3.063.814c1.2.239,2.393.526,3.589.814a8.1,8.1,0,0,1,3.063,1.579,3.449,3.449,0,0,1,1.244,2.776,4.046,4.046,0,0,1-1.627,3.494c-1.1.814-2.919,1.244-5.552,1.244l-3.4-.048a7.425,7.425,0,0,1-4.164-1.2,3.526,3.526,0,0,1-1.815-2.973Z" transform="translate(1483.347 5563.89)"/><path class="b" d="M249.8,25.123V11.1a1.173,1.173,0,0,1,.287-.766.892.892,0,0,1,.766-.335h3.3a1.293,1.293,0,0,1,.814.335,3.6,3.6,0,0,1,.718.766l6.8,10.481V11.053a1.173,1.173,0,0,1,.287-.766,1.087,1.087,0,0,1,.766-.287H265.5a1.174,1.174,0,0,1,.766.287,1.087,1.087,0,0,1,.287.766V25.076a1.174,1.174,0,0,1-.287.766.914.914,0,0,1-.766.287h-3.733a1.979,1.979,0,0,1-1.627-1.053l-6.222-9.668v9.668a1.173,1.173,0,0,1-.287.766,1.087,1.087,0,0,1-.766.287H250.9a1.174,1.174,0,0,1-.766-.287.861.861,0,0,1-.334-.719Z" transform="translate(1462.752 5563.786)"/><path class="b" d="M288.848,25.223l2.824-10.72c.766-2.919,3.254-4.4,7.466-4.4h6.078a.861.861,0,0,1,.718.335,1.055,1.055,0,0,1,.287.718V25.223a.861.861,0,0,1-.335.718,1.087,1.087,0,0,1-.766.287h-2.106a1.087,1.087,0,0,1-.766-.287,1.01,1.01,0,0,1-.287-.766V22.352h-8.04l-.766,2.824a1.448,1.448,0,0,1-1.34,1.053h-2.2a.755.755,0,0,1-.622-.239.778.778,0,0,1-.191-.431.709.709,0,0,1,.046-.336Zm5.934-6.078h7.179V13.259h-3.207a2.837,2.837,0,0,0-1.866.622,3.14,3.14,0,0,0-1.1,1.675Z" transform="translate(1442.417 5563.733)"/><path class="b" d="M331.9,11.1a1.02,1.02,0,0,1,.335-.766A1.13,1.13,0,0,1,333,10h9.189a6.08,6.08,0,0,1,4.977,1.962,4.255,4.255,0,0,1,.909,2.728,3.8,3.8,0,0,1-1.531,2.919A3.8,3.8,0,0,1,348.7,21.2a4.382,4.382,0,0,1-1.723,3.733,6.93,6.93,0,0,1-4.259,1.292H333a1.174,1.174,0,0,1-.766-.287,1.129,1.129,0,0,1-.335-.766Zm4.259,5.217h6.03a1.553,1.553,0,0,0,1.149-.431,1.593,1.593,0,0,0,.431-1.2,1.593,1.593,0,0,0-.431-1.2,1.553,1.553,0,0,0-1.149-.431h-6.03Zm0,6.844h6.461a1.8,1.8,0,0,0,1.34-.526,2.154,2.154,0,0,0,.479-1.436,2.008,2.008,0,0,0-.479-1.436,1.727,1.727,0,0,0-1.34-.526h-6.461Z" transform="translate(1419.944 5563.786)"/><path class="b" d="M93.537,61.486a2.593,2.593,0,0,1-1.867-.622,2.675,2.675,0,0,1,0-3.542,2.473,2.473,0,0,1,1.819-.622,3.808,3.808,0,0,1,1.819.383,1.174,1.174,0,0,1,.622,1.1.249.249,0,0,1-.1.191c-.048.048-.1.048-.191.048H95.02a.583.583,0,0,1-.479-.287.887.887,0,0,0-.861-.383.968.968,0,0,0-.861.335,1.639,1.639,0,0,0-.239,1.053,1.892,1.892,0,0,0,.239,1.053,1.065,1.065,0,0,0,.909.335,1.085,1.085,0,0,0,.909-.383c.144-.191.287-.335.479-.335h.622a.338.338,0,0,1,.287.287,1.174,1.174,0,0,1-.622,1.1A4.925,4.925,0,0,1,93.537,61.486Z" transform="translate(1545.552 5539.436)"/><path class="b" d="M101.9,57.614v-.526a.338.338,0,0,1,.287-.287h4.164a.338.338,0,0,1,.287.287v.526a.338.338,0,0,1-.287.287h-1.34v3.35a.338.338,0,0,1-.287.287h-.957a.338.338,0,0,1-.287-.287V57.9h-1.34a.249.249,0,0,1-.191-.1A.288.288,0,0,1,101.9,57.614Z" transform="translate(1539.868 5539.384)"/><path class="b" d="M113,62.587V57.035a.338.338,0,0,1,.287-.287h.814a.338.338,0,0,1,.287.287v.144a2.434,2.434,0,0,1,1.531-.479,1.919,1.919,0,0,1,1.484.622,2.543,2.543,0,0,1,.574,1.771,2.287,2.287,0,0,1-.622,1.771,2.2,2.2,0,0,1-1.675.622,4.675,4.675,0,0,1-1.244-.239v1.34a.338.338,0,0,1-.287.287h-.957a.249.249,0,0,1-.191-.1C113.048,62.73,113,62.635,113,62.587Zm1.484-2.3a4.429,4.429,0,0,0,.909.191.876.876,0,0,0,.814-.335,2.436,2.436,0,0,0,0-2.106.724.724,0,0,0-.67-.335,2.185,2.185,0,0,0-1.053.383Z" transform="translate(1534.081 5539.436)"/><path class="b" d="M125.07,60.964a2.675,2.675,0,0,1,0-3.542,2.78,2.78,0,0,1,1.914-.622,2.64,2.64,0,0,1,1.914.622,2.675,2.675,0,0,1,0,3.542,3.256,3.256,0,0,1-3.829,0Zm1.053-2.919a1.71,1.71,0,0,0-.239,1.1,2.209,2.209,0,0,0,.239,1.1,1.155,1.155,0,0,0,1.627,0,1.686,1.686,0,0,0,.287-1.1,1.778,1.778,0,0,0-.287-1.1,1.155,1.155,0,0,0-1.627,0Z" transform="translate(1528.137 5539.384)"/><path class="b" d="M136.7,61.2V57.087a.338.338,0,0,1,.287-.287h.861a.338.338,0,0,1,.287.287v2.776l1.484-2.728a.84.84,0,0,1,.191-.239.352.352,0,0,1,.287-.1h1.2a.338.338,0,0,1,.287.287V61.2a.249.249,0,0,1-.1.191c-.048.048-.1.048-.191.048h-.861a.338.338,0,0,1-.287-.287V58.379l-1.484,2.728a.374.374,0,0,1-.191.191.68.68,0,0,1-.287.1h-1.2c-.1,0-.144,0-.191-.048C136.748,61.347,136.7,61.3,136.7,61.2Z" transform="translate(1521.723 5539.384)"/><path class="b" d="M148,57.614v-.526a.338.338,0,0,1,.287-.287h4.164a.338.338,0,0,1,.287.287v.526a.338.338,0,0,1-.287.287h-1.34v3.35a.338.338,0,0,1-.287.287h-.957a.338.338,0,0,1-.287-.287V57.9h-1.34a.249.249,0,0,1-.191-.1A.288.288,0,0,1,148,57.614Z" transform="translate(1515.831 5539.384)"/><path class="b" d="M159.07,60.864a2.381,2.381,0,0,1-.67-1.771,2.307,2.307,0,0,1,.67-1.771,2.969,2.969,0,0,1,3.637,0,2.269,2.269,0,0,1,.67,1.723v.239a.338.338,0,0,1-.287.287h-3.207a1.427,1.427,0,0,0,.287.766,1.267,1.267,0,0,0,.814.239,1.04,1.04,0,0,0,.766-.239.561.561,0,0,1,.526-.239h.622a.338.338,0,0,1,.287.287c0,.814-.766,1.2-2.3,1.2a3,3,0,0,1-1.815-.721Zm.861-2.2h1.962c-.048-.67-.335-1.005-.957-1.005a.908.908,0,0,0-1.005,1Z" transform="translate(1510.409 5539.436)"/><path class="b" d="M169.5,61.255l.766-3.063c.191-.861.909-1.292,2.106-1.292h2.01a.338.338,0,0,1,.287.287v4.068a.338.338,0,0,1-.287.287h-.957a.338.338,0,0,1-.287-.287v-3.35h-.814a.758.758,0,0,0-.766.622l-.67,2.68a1.047,1.047,0,0,1-.144.239c-.1.048-.144.1-.239.1h-.766c-.1,0-.144,0-.191-.048a.176.176,0,0,1-.048-.144Z" transform="translate(1504.621 5539.332)"/><path class="b" d="M182.4,61.2V57.087a.338.338,0,0,1,.287-.287h.957a.338.338,0,0,1,.287.287v1.292h1.292a2.292,2.292,0,0,1,1.388.335,1.735,1.735,0,0,1,0,2.393,2.388,2.388,0,0,1-1.388.335h-2.536a.249.249,0,0,1-.191-.1C182.448,61.347,182.4,61.3,182.4,61.2Zm1.484-.718h1.149a.668.668,0,0,0,.431-.144c.144-.1.144-.239.144-.431a.508.508,0,0,0-.574-.574h-1.149Z" transform="translate(1497.895 5539.384)"/><path class="b" d="M193.7,61.2V57.087a.338.338,0,0,1,.287-.287h.957a.338.338,0,0,1,.287.287v1.531H197.1V57.087a.338.338,0,0,1,.287-.287h.957a.338.338,0,0,1,.287.287V61.2a.249.249,0,0,1-.1.191c-.048.048-.1.048-.191.048h-.957a.338.338,0,0,1-.287-.287V59.576h-1.867V61.2a.249.249,0,0,1-.1.191c-.048.048-.1.048-.191.048h-.957c-.1,0-.144,0-.191-.048a.249.249,0,0,1-.09-.191Z" transform="translate(1492.003 5539.384)"/><path class="b" d="M205.8,61.2V57.087a.338.338,0,0,1,.287-.287h.957a.338.338,0,0,1,.287.287v1.292h1.005a2.292,2.292,0,0,1,1.388.335,1.735,1.735,0,0,1,0,2.393,2.388,2.388,0,0,1-1.388.335h-2.2c-.1,0-.144,0-.191-.048S205.8,61.3,205.8,61.2Zm1.436-.67h.909c.383,0,.574-.191.574-.622s-.191-.622-.574-.622h-.909Zm3.542.67V57.087a.338.338,0,0,1,.287-.287h.957a.338.338,0,0,1,.287.287V61.2a.249.249,0,0,1-.1.191c-.048.048-.1.048-.191.048h-.957c-.1,0-.144,0-.191-.048-.093-.044-.093-.091-.093-.191Z" transform="translate(1485.694 5539.384)"/><path class="b" d="M221.377,59.222V55.106a.338.338,0,0,1,.287-.287h.861a.338.338,0,0,1,.287.287v2.776l1.484-2.728a.84.84,0,0,1,.191-.239.68.68,0,0,1,.287-.1h1.2a.338.338,0,0,1,.287.287v4.116a.249.249,0,0,1-.1.191c-.048.048-.1.048-.191.048h-.957a.338.338,0,0,1-.287-.287V56.4l-1.484,2.728a.374.374,0,0,1-.191.191.68.68,0,0,1-.287.1h-1.2c-.1,0-.144,0-.191-.048S221.377,59.317,221.377,59.222Zm.957-5.982a.226.226,0,0,1,.239-.239h.335c.144,0,.239.048.287.239a.66.66,0,0,0,1.149,0,.3.3,0,0,1,.287-.239h.335c.144,0,.239.048.239.239a1.022,1.022,0,0,1-.383.814,1.686,1.686,0,0,1-1,.335,1.348,1.348,0,0,1-1.005-.335.888.888,0,0,1-.478-.815Z" transform="translate(1477.583 5541.365)"/><path class="b" d="M239.9,61.2V57.087a.338.338,0,0,1,.287-.287h3.159a.338.338,0,0,1,.287.287v.526a.338.338,0,0,1-.287.287h-1.962v3.35a.338.338,0,0,1-.287.287h-.957a.249.249,0,0,1-.191-.1C239.948,61.347,239.9,61.3,239.9,61.2Z" transform="translate(1467.914 5539.384)"/><path class="b" d="M248.9,61.2V57.087a.338.338,0,0,1,.287-.287h.861a.338.338,0,0,1,.287.287v2.776l1.484-2.728a.84.84,0,0,1,.191-.239.68.68,0,0,1,.287-.1h1.2a.338.338,0,0,1,.287.287V61.2a.249.249,0,0,1-.1.191c-.048.048-.1.048-.191.048h-.861a.338.338,0,0,1-.287-.287V58.379l-1.484,2.728a.374.374,0,0,1-.191.191.68.68,0,0,1-.287.1h-1.2c-.1,0-.144,0-.191-.048S248.9,61.3,248.9,61.2Z" transform="translate(1463.221 5539.384)"/><path class="b" d="M261.1,61.2V57.087a.338.338,0,0,1,.287-.287h4.259a.338.338,0,0,1,.287.287V61.2a.249.249,0,0,1-.1.191c-.048.048-.1.048-.191.048h-.957a.338.338,0,0,1-.287-.287V57.8h-1.867v3.35a.249.249,0,0,1-.1.191c-.048.048-.1.048-.191.048h-.957c-.1,0-.144,0-.191-.048C261.148,61.347,261.1,61.3,261.1,61.2Z" transform="translate(1456.86 5539.384)"/><path class="b" d="M273.37,60.864a2.381,2.381,0,0,1-.67-1.771,2.307,2.307,0,0,1,.67-1.771,2.969,2.969,0,0,1,3.637,0,2.269,2.269,0,0,1,.67,1.723v.239a.338.338,0,0,1-.287.287h-3.207a1.427,1.427,0,0,0,.287.766,1.267,1.267,0,0,0,.814.239,1.04,1.04,0,0,0,.766-.239.561.561,0,0,1,.526-.239h.622a.338.338,0,0,1,.287.287c0,.814-.766,1.2-2.3,1.2a3,3,0,0,1-1.815-.721Zm.814-2.2h1.962c-.048-.67-.335-1.005-.957-1.005s-.958.333-1.005,1Z" transform="translate(1450.811 5539.436)"/><path class="b" d="M284.7,62.587V57.035a.338.338,0,0,1,.287-.287h.814a.339.339,0,0,1,.287.287v.144a2.434,2.434,0,0,1,1.531-.479,1.919,1.919,0,0,1,1.484.622,2.543,2.543,0,0,1,.574,1.771,2.287,2.287,0,0,1-.622,1.771,2.2,2.2,0,0,1-1.675.622,4.675,4.675,0,0,1-1.244-.239v1.34a.339.339,0,0,1-.287.287h-.957a.249.249,0,0,1-.191-.1C284.7,62.73,284.7,62.635,284.7,62.587Zm1.436-2.3a4.428,4.428,0,0,0,.909.191.876.876,0,0,0,.814-.335,2.436,2.436,0,0,0,0-2.106.724.724,0,0,0-.67-.335,2.185,2.185,0,0,0-1.053.383Z" transform="translate(1444.554 5539.436)"/><path class="b" d="M296.6,61.2V57.087a.338.338,0,0,1,.287-.287h1.436c.144,0,.287.1.383.335l1.053,2.537,1.053-2.537c.1-.191.191-.335.383-.335h1.436a.338.338,0,0,1,.287.287V61.2a.249.249,0,0,1-.1.191c-.048.048-.1.048-.191.048h-.909a.338.338,0,0,1-.287-.287V58.523l-1.1,2.584a.449.449,0,0,1-.383.287h-.431c-.191,0-.287-.1-.383-.287l-1.1-2.584V61.2a.248.248,0,0,1-.1.191c-.048.048-.1.048-.191.048h-.909c-.1,0-.143,0-.191-.048C296.648,61.347,296.6,61.3,296.6,61.2Z" transform="translate(1438.35 5539.384)"/><path class="b" d="M311.874,61.051a1.225,1.225,0,0,1-.574-1.1,1.281,1.281,0,0,1,.574-1.1,2.666,2.666,0,0,1,1.436-.383h1.39c0-.335-.048-.574-.191-.67a1.306,1.306,0,0,0-1.436.048.561.561,0,0,1-.526.239h-.622a.338.338,0,0,1-.287-.287c0-.814.766-1.2,2.3-1.2a2.838,2.838,0,0,1,1.627.431,1.669,1.669,0,0,1,.622,1.388V61.1c0,.1,0,.144-.1.191-.048.048-.1.048-.191.048h-.814a.339.339,0,0,1-.287-.287v-.144a2.434,2.434,0,0,1-1.531.479A2.15,2.15,0,0,1,311.874,61.051Zm1.053-1.484a.591.591,0,0,0-.191.383.435.435,0,0,0,.191.383.77.77,0,0,0,.526.144,2.372,2.372,0,0,0,1.244-.383v-.67H313.4a.809.809,0,0,0-.478.143Z" transform="translate(1430.685 5539.488)"/><path class="b" d="M323.7,62.587V57.035a.338.338,0,0,1,.287-.287h.814a.338.338,0,0,1,.287.287v.144a2.434,2.434,0,0,1,1.531-.479,1.919,1.919,0,0,1,1.484.622,2.543,2.543,0,0,1,.574,1.771,2.287,2.287,0,0,1-.622,1.771,2.2,2.2,0,0,1-1.675.622,4.675,4.675,0,0,1-1.244-.239v1.34a.338.338,0,0,1-.287.287h-.957a.249.249,0,0,1-.191-.1Zm1.436-2.3a4.429,4.429,0,0,0,.909.191.876.876,0,0,0,.814-.335,2.436,2.436,0,0,0,0-2.106.724.724,0,0,0-.67-.335,2.185,2.185,0,0,0-1.053.383Z" transform="translate(1424.219 5539.436)"/><path class="b" d="M340.186,61.3c0,.144-.1.191-.239.191h-.814a.825.825,0,0,1-.67-.383l-.526-.861a1.125,1.125,0,0,0-1.005-.574V61.2a.249.249,0,0,1-.1.191c-.048.048-.1.048-.191.048h-.957c-.1,0-.144,0-.191-.048a.249.249,0,0,1-.1-.191V57.087a.338.338,0,0,1,.287-.287h.957a.249.249,0,0,1,.191.1c.048.048.048.1.048.191V58.67a1.028,1.028,0,0,0,1.005-.574l.383-.861a.49.49,0,0,1,.239-.287.456.456,0,0,1,.335-.1h.814c.144,0,.191.048.191.144a.52.52,0,0,1-.048.239l-.526,1.149a1.877,1.877,0,0,1-.383.479,1.141,1.141,0,0,1-.526.287,1.531,1.531,0,0,1,.909.766l.718,1.149C340.138,61.155,340.186,61.2,340.186,61.3Z" transform="translate(1418.119 5539.384)"/><path class="b" d="M346.57,60.864a2.381,2.381,0,0,1-.67-1.771,2.307,2.307,0,0,1,.67-1.771,2.969,2.969,0,0,1,3.637,0,2.269,2.269,0,0,1,.67,1.723v.239a.338.338,0,0,1-.287.287h-3.207a1.427,1.427,0,0,0,.287.766,1.267,1.267,0,0,0,.814.239,1.04,1.04,0,0,0,.766-.239.561.561,0,0,1,.526-.239h.622a.338.338,0,0,1,.287.287c0,.814-.766,1.2-2.3,1.2a3,3,0,0,1-1.815-.721Zm.814-2.2h1.962c-.048-.67-.335-1.005-.957-1.005s-.958.333-1.005,1Z" transform="translate(1412.644 5539.436)"/><path class="b" d="M356.9,57.614v-.526a.338.338,0,0,1,.287-.287h4.164a.249.249,0,0,1,.191.1c.048.048.048.1.048.191v.526c0,.1,0,.144-.048.191a.249.249,0,0,1-.191.1h-1.34v3.35a.338.338,0,0,1-.287.287h-.957a.339.339,0,0,1-.287-.287V57.9h-1.34a.249.249,0,0,1-.191-.1.362.362,0,0,1-.049-.186Z" transform="translate(1406.909 5539.384)"/></g></svg>