<svg xmlns="http://www.w3.org/2000/svg" viewBox="0 0 11.301 20.059"><defs><style>.a{fill:none;stroke:#081439;}</style></defs><path class="a" d="M31.991,0H29.52a4.339,4.339,0,0,0-4.57,4.689V6.851H22.466a.389.389,0,0,0-.389.389v3.133a.389.389,0,0,0,.389.389H24.95v7.9a.388.388,0,0,0,.389.389H28.58a.389.389,0,0,0,.389-.389v-7.9h2.9a.388.388,0,0,0,.389-.389V7.24a.389.389,0,0,0-.389-.389h-2.9V5.018c0-.881.21-1.328,1.357-1.328H31.99a.388.388,0,0,0,.388-.389V.392A.389.389,0,0,0,31.991,0Z" transform="translate(-21.577 0.508)"/></svg>