<svg xmlns="http://www.w3.org/2000/svg" viewBox="0 0 208.439 45"><defs><style>.a{fill:#dbdbdb;}.b{fill:#081439;}</style></defs><g transform="translate(-6598 65)"><g transform="translate(6598 -65)"><circle class="a" cx="22.5" cy="22.5" r="22.5"/><g transform="translate(7.084 11.618)"><path class="b" d="M34.263,29.738,32.28,27.754l-2.38,2.38,1.19,1.247-7.708,7.708-7.764-7.708,7.764-7.764L24.8,25.034l2.38-2.38L24.969,20.5h-3.23L12.5,29.738v3.287l9.238,9.238h3.23l9.3-9.238Z" transform="translate(-12.5 -20.5)"/><path class="b" d="M41.025,20.5H37.738L28.5,29.738v3.287l1.984,1.984,2.38-2.38-1.247-1.247,7.764-7.764,7.764,7.764L39.381,39.09l-1.417-1.417-2.38,2.437,2.154,2.154h3.287l9.238-9.238V29.738Z" transform="translate(-19.432 -20.5)"/></g></g><g transform="translate(6650 -59.9)"><g transform="translate(0.624 -0.1)"><path class="b" d="M1.157,1.4A1.208,1.208,0,0,1,1.554.5,1.208,1.208,0,0,1,2.461.1H13.348c2.665,0,4.65.794,5.9,2.325a5.041,5.041,0,0,1,1.077,3.232,4.5,4.5,0,0,1-1.814,3.459,4.5,4.5,0,0,1,2.552,4.253,5.191,5.191,0,0,1-2.041,4.423,8.382,8.382,0,0,1-5.1,1.531H2.4a1.39,1.39,0,0,1-.907-.34,1.128,1.128,0,0,1-.4-.907V1.4ZM6.2,7.585h7.144a1.756,1.756,0,0,0,1.871-1.871,1.976,1.976,0,0,0-.51-1.418,1.839,1.839,0,0,0-1.361-.51H6.2Zm0,8.108h7.655a2.134,2.134,0,0,0,1.588-.624,2.552,2.552,0,0,0,.567-1.7,2.379,2.379,0,0,0-.567-1.7,2.046,2.046,0,0,0-1.588-.624H6.2Z" transform="translate(-1.1 0.013)"/><path class="b" d="M38.2,18.118l3.345-12.7C42.453,1.958,45.4.2,50.391.2h7.2a.858.858,0,0,1,.794.4,1.8,1.8,0,0,1,.34.851v16.67a1.02,1.02,0,0,1-.4.851,1.288,1.288,0,0,1-.907.34H54.927a1.288,1.288,0,0,1-.907-.34,1.2,1.2,0,0,1-.34-.907V14.716H44.267l-.907,3.345a1.715,1.715,0,0,1-1.588,1.247H39.164a.9.9,0,0,1-.737-.284,1.283,1.283,0,0,1-.227-.51C38.2,18.4,38.2,18.231,38.2,18.118Zm7.031-7.144h8.505V4h-3.8a3.362,3.362,0,0,0-2.211.737,3.721,3.721,0,0,0-1.3,1.985Z" transform="translate(-17.164 -0.03)"/><path class="b" d="M80.8,11.724V1.4A1.39,1.39,0,0,1,81.14.5a1.128,1.128,0,0,1,.907-.4h2.495a1.208,1.208,0,0,1,.907.4,1.208,1.208,0,0,1,.4.907v10.32a4.46,4.46,0,0,0,.851,2.948,3.472,3.472,0,0,0,2.665.964h2.155a3.472,3.472,0,0,0,2.665-.964,4.359,4.359,0,0,0,.851-2.948V1.4A1.39,1.39,0,0,1,95.372.5,1.338,1.338,0,0,1,96.28.1h2.495a1.128,1.128,0,0,1,.907.4,1.46,1.46,0,0,1,.4.907v10.32a7.476,7.476,0,0,1-2.155,5.67c-1.418,1.361-3.516,1.985-6.294,1.985H89.249c-2.778,0-4.876-.68-6.294-1.985A7.391,7.391,0,0,1,80.8,11.724Z" transform="translate(-35.609 0.013)"/><path class="b" d="M119.1,14.3a1.407,1.407,0,0,1,.454-1.134,1.508,1.508,0,0,1,.907-.34h1.588a1.972,1.972,0,0,1,1.814,1.3c.4.851,1.361,1.3,2.835,1.3l4.65.113c1.588,0,2.325-.51,2.325-1.531,0-.794-.964-1.361-2.892-1.814-.851-.227-1.814-.4-2.835-.624s-2.041-.454-3.062-.737a18.438,18.438,0,0,1-2.835-1.077,5.574,5.574,0,0,1-2.1-1.7,4.394,4.394,0,0,1-.794-2.552,4.793,4.793,0,0,1,1.928-4.139C122.332.41,124.543-.1,127.662-.1l3.4.057A8.8,8.8,0,0,1,136,1.374a4.122,4.122,0,0,1,2.211,3.516,1.407,1.407,0,0,1-.454,1.134,1.646,1.646,0,0,1-.907.34H135.26a1.972,1.972,0,0,1-1.814-1.3c-.4-.851-1.361-1.3-2.835-1.3L126.585,3.7c-1.588,0-2.325.51-2.325,1.531,0,.567.51,1.021,1.474,1.361a27.277,27.277,0,0,0,3.629.964c1.418.284,2.835.624,4.253.964a9.6,9.6,0,0,1,3.629,1.871,4.086,4.086,0,0,1,1.474,3.289,4.793,4.793,0,0,1-1.928,4.139c-1.3.964-3.459,1.474-6.577,1.474l-4.026-.057a8.8,8.8,0,0,1-4.933-1.418A4.108,4.108,0,0,1,119.1,14.3Z" transform="translate(-52.192 0.1)"/><path class="b" d="M158.7,18.074V1.4A1.39,1.39,0,0,1,159.04.5a1.057,1.057,0,0,1,.907-.4h3.912a1.532,1.532,0,0,1,.964.4,4.263,4.263,0,0,1,.851.907l8.052,12.418V1.4a1.39,1.39,0,0,1,.34-.907,1.288,1.288,0,0,1,.907-.34H177.3a1.39,1.39,0,0,1,.907.34,1.288,1.288,0,0,1,.34.907V18.018a1.39,1.39,0,0,1-.34.907,1.082,1.082,0,0,1-.907.34h-4.423a2.344,2.344,0,0,1-1.928-1.247L163.576,6.564V18.018a1.39,1.39,0,0,1-.34.907,1.288,1.288,0,0,1-.907.34H160a1.39,1.39,0,0,1-.907-.34A1.02,1.02,0,0,1,158.7,18.074Z" transform="translate(-69.338 0.013)"/><path class="b" d="M197.7,18.118l3.345-12.7C201.953,1.958,204.9.2,209.891.2h7.258A1.02,1.02,0,0,1,218,.6a1.25,1.25,0,0,1,.34.851v16.67a1.02,1.02,0,0,1-.4.851,1.288,1.288,0,0,1-.907.34H214.54a1.288,1.288,0,0,1-.907-.34,1.2,1.2,0,0,1-.34-.907V14.716h-9.526l-.907,3.345a1.715,1.715,0,0,1-1.588,1.247h-2.608a.9.9,0,0,1-.737-.284.922.922,0,0,1-.227-.51Zm7.031-7.144h8.505V4h-3.8a3.362,3.362,0,0,0-2.211.737,3.721,3.721,0,0,0-1.3,1.985Z" transform="translate(-86.224 -0.03)"/><path class="b" d="M240.757,1.4a1.208,1.208,0,0,1,.4-.907,1.338,1.338,0,0,1,.907-.4h10.887c2.665,0,4.65.794,5.9,2.325a5.041,5.041,0,0,1,1.077,3.232,4.5,4.5,0,0,1-1.814,3.459,4.5,4.5,0,0,1,2.552,4.253,5.191,5.191,0,0,1-2.041,4.423,8.21,8.21,0,0,1-5.046,1.531H242a1.39,1.39,0,0,1-.907-.34,1.338,1.338,0,0,1-.4-.907V1.4Zm5.046,6.18h7.144a1.839,1.839,0,0,0,1.361-.51,1.887,1.887,0,0,0,.51-1.418,1.887,1.887,0,0,0-.51-1.418,1.839,1.839,0,0,0-1.361-.51H245.8V7.585Zm0,8.108h7.655a2.134,2.134,0,0,0,1.588-.624,2.552,2.552,0,0,0,.567-1.7,2.378,2.378,0,0,0-.567-1.7,2.046,2.046,0,0,0-1.588-.624H245.8Z" transform="translate(-104.843 0.013)"/></g><g transform="translate(0 23.261)"><path class="b" d="M.907,51.027A3.086,3.086,0,0,1,0,48.589a3.009,3.009,0,0,1,.907-2.438A3.991,3.991,0,0,1,3.516,45.3a3.7,3.7,0,0,1,2.608.851,3.086,3.086,0,0,1,.907,2.438,3.215,3.215,0,0,1-.907,2.495,3.7,3.7,0,0,1-2.608.851A3.725,3.725,0,0,1,.907,51.027Zm1.474-3.969a3.615,3.615,0,0,0,0,3.062,1.252,1.252,0,0,0,1.134.454A1.407,1.407,0,0,0,4.65,50.12a2.537,2.537,0,0,0,.34-1.531,2.657,2.657,0,0,0-.34-1.531A1.252,1.252,0,0,0,3.516,46.6,1.407,1.407,0,0,0,2.381,47.058Z" transform="translate(0 -42.919)"/><path class="b" d="M15.7,51.467V45.8c0-.113.057-.17.113-.284a.43.43,0,0,1,.227-.113h1.3c.113,0,.17.057.284.113a.433.433,0,0,1,.113.284v2.1h2.552V45.8c0-.113.057-.17.113-.284a.433.433,0,0,1,.284-.113h1.3c.113,0,.17.057.284.113a.433.433,0,0,1,.113.284v5.67c0,.113-.057.17-.113.284a.433.433,0,0,1-.284.113h-1.3c-.113,0-.17-.057-.284-.113a.43.43,0,0,1-.113-.227V49.369H17.741v2.155c0,.113-.057.17-.113.284a.226.226,0,0,1-.227.113H16.1c-.113,0-.17-.057-.284-.113A.479.479,0,0,1,15.7,51.467Z" transform="translate(-6.798 -42.962)"/><path class="b" d="M30.1,51.41l1.021-4.253c.284-1.191,1.247-1.758,2.892-1.758h2.835a.3.3,0,0,1,.227.113.433.433,0,0,1,.113.284v5.67a.3.3,0,0,1-.113.227.43.43,0,0,1-.227.113h-1.3a.3.3,0,0,1-.227-.113.43.43,0,0,1-.113-.227V46.874H34.126a.947.947,0,0,0-1.021.851L32.2,51.41a.566.566,0,0,1-.227.284.806.806,0,0,1-.34.113H30.44a.3.3,0,0,1-.227-.113.208.208,0,0,1-.057-.17C30.157,51.467,30.1,51.467,30.1,51.41Z" transform="translate(-13.033 -42.962)"/><path class="b" d="M46.594,51.367a1.739,1.739,0,0,1-.794-1.531,1.644,1.644,0,0,1,.794-1.474,3.557,3.557,0,0,1,1.985-.51h1.928a1.393,1.393,0,0,0-.284-.964A1.46,1.46,0,0,0,49.2,46.6a1.386,1.386,0,0,0-1.021.34.886.886,0,0,1-.68.34h-.851c-.113,0-.17-.057-.284-.113a.43.43,0,0,1-.113-.227c0-1.134,1.077-1.644,3.175-1.644a3.78,3.78,0,0,1,2.211.624,2.232,2.232,0,0,1,.851,1.928v3.572c0,.113-.057.17-.113.284a.433.433,0,0,1-.284.113H50.96c-.113,0-.17-.057-.284-.113a.43.43,0,0,1-.113-.227v-.17a3.441,3.441,0,0,1-2.1.68A3.21,3.21,0,0,1,46.594,51.367Zm1.531-2.041a.688.688,0,0,0,0,1.021,1.216,1.216,0,0,0,.68.227,3,3,0,0,0,1.7-.51v-.907H48.748A.912.912,0,0,0,48.125,49.326Z" transform="translate(-19.831 -42.919)"/><path class="b" d="M61.6,49.605v-5.67c0-.113.057-.17.113-.284a.43.43,0,0,1,.227-.113h1.191c.113,0,.17.057.284.113a.433.433,0,0,1,.113.284v3.8l2.041-3.742a.683.683,0,0,1,.284-.284.82.82,0,0,1,.4-.113h1.644c.113,0,.17.057.284.113a.433.433,0,0,1,.113.284v5.67c0,.113-.057.17-.113.284a.433.433,0,0,1-.284.113H66.7c-.113,0-.17-.057-.284-.113a.43.43,0,0,1-.113-.227v-3.8l-2.041,3.629a.683.683,0,0,1-.284.284.82.82,0,0,1-.4.113H61.94c-.113,0-.17-.057-.284-.113C61.6,49.775,61.6,49.719,61.6,49.605Zm1.361-8.222c0-.17.113-.284.34-.284h.454a.426.426,0,0,1,.4.284c.113.34.4.454.794.454a.788.788,0,0,0,.794-.454.426.426,0,0,1,.4-.284h.454c.227,0,.34.113.34.284a1.324,1.324,0,0,1-.567,1.134,2.351,2.351,0,0,1-1.418.454,2.232,2.232,0,0,1-1.418-.454A1.394,1.394,0,0,1,62.961,41.384Z" transform="translate(-26.672 -41.1)"/><path class="b" d="M77.2,51.467V45.8c0-.113.057-.17.113-.284a.226.226,0,0,1,.227-.113h1.3c.113,0,.17.057.284.113s.113.17.113.284v2.1h2.552V45.8c0-.113.057-.17.113-.284s.17-.113.284-.113h1.3c.113,0,.17.057.284.113s.113.17.113.284v5.67c0,.113-.057.17-.113.284s-.17.113-.284.113h-1.3c-.113,0-.17-.057-.284-.113a.43.43,0,0,1-.113-.227V49.369H79.241v2.155c0,.113-.057.17-.113.284a.43.43,0,0,1-.227.113H77.6c-.113,0-.17-.057-.284-.113S77.2,51.58,77.2,51.467Z" transform="translate(-33.426 -42.962)"/><path class="b" d="M104.159,51.877a3.651,3.651,0,0,1-2.552-.851,3.086,3.086,0,0,1-.907-2.438,3.009,3.009,0,0,1,.907-2.438A3.5,3.5,0,0,1,104.1,45.3a5.115,5.115,0,0,1,2.495.51,1.671,1.671,0,0,1,.851,1.531c0,.113-.057.17-.113.284a.433.433,0,0,1-.284.113H106.2a.74.74,0,0,1-.68-.4,1.354,1.354,0,0,0-1.191-.567,1.454,1.454,0,0,0-1.191.454,2.453,2.453,0,0,0-.34,1.474,2.573,2.573,0,0,0,.34,1.474,1.584,1.584,0,0,0,1.247.454,1.334,1.334,0,0,0,1.247-.567.8.8,0,0,1,.68-.454h.851c.113,0,.17.057.284.113a.43.43,0,0,1,.113.227,1.671,1.671,0,0,1-.851,1.531A7.269,7.269,0,0,1,104.159,51.877Z" transform="translate(-43.601 -42.919)"/><path class="b" d="M114.8,46.477V45.8c0-.113.057-.17.113-.284a.433.433,0,0,1,.284-.113h5.727c.113,0,.17.057.284.113a.433.433,0,0,1,.113.284v.68a.3.3,0,0,1-.113.227.433.433,0,0,1-.284.113h-1.871V51.41a.3.3,0,0,1-.113.227.433.433,0,0,1-.284.113h-1.3c-.113,0-.17-.057-.284-.113a.43.43,0,0,1-.113-.227V46.818h-1.871c-.113,0-.17-.057-.284-.113C114.8,46.647,114.8,46.591,114.8,46.477Z" transform="translate(-49.706 -42.962)"/><path class="b" d="M129,53.352v-7.6c0-.113.057-.17.113-.284a.226.226,0,0,1,.227-.113h1.134a.3.3,0,0,1,.227.113.433.433,0,0,1,.113.284v.17a3.453,3.453,0,0,1,2.155-.624,2.784,2.784,0,0,1,2.041.851,3.336,3.336,0,0,1,.794,2.438,3.27,3.27,0,0,1-.851,2.438,3.036,3.036,0,0,1-2.268.851,6.65,6.65,0,0,1-1.7-.284v1.758c0,.113-.057.17-.113.284a.43.43,0,0,1-.227.113h-1.3a.3.3,0,0,1-.227-.113A.433.433,0,0,1,129,53.352Zm1.985-3.119a3.886,3.886,0,0,0,1.247.227,1.407,1.407,0,0,0,1.134-.454,2.453,2.453,0,0,0,.34-1.474,2.258,2.258,0,0,0-.34-1.418,1.134,1.134,0,0,0-.964-.454,2.876,2.876,0,0,0-1.474.51v3.062Z" transform="translate(-55.855 -42.919)"/><path class="b" d="M144.607,50.984a3.136,3.136,0,0,1-.907-2.495,3.009,3.009,0,0,1,.907-2.438,3.991,3.991,0,0,1,2.608-.851,3.7,3.7,0,0,1,2.608.851,3.086,3.086,0,0,1,.907,2.438,3.215,3.215,0,0,1-.907,2.495,3.7,3.7,0,0,1-2.608.851A3.612,3.612,0,0,1,144.607,50.984Zm1.418-3.969a3.615,3.615,0,0,0,0,3.062,1.252,1.252,0,0,0,1.134.454,1.407,1.407,0,0,0,1.134-.454,3.615,3.615,0,0,0,0-3.062,1.252,1.252,0,0,0-1.134-.454A1.491,1.491,0,0,0,146.025,47.014Z" transform="translate(-62.22 -42.875)"/><path class="b" d="M159.289,49.605v-5.67c0-.113.057-.17.113-.284a.226.226,0,0,1,.227-.113h1.191c.113,0,.17.057.284.113a.433.433,0,0,1,.113.284v3.8l2.041-3.742a.683.683,0,0,1,.284-.284.82.82,0,0,1,.4-.113h1.644c.113,0,.17.057.284.113s.113.17.113.284v5.67c0,.113-.057.17-.113.284s-.17.113-.284.113h-1.191c-.113,0-.17-.057-.284-.113a.43.43,0,0,1-.113-.227v-3.8l-2.041,3.629a.683.683,0,0,1-.284.284.82.82,0,0,1-.4.113h-1.644c-.113,0-.17-.057-.284-.113S159.289,49.719,159.289,49.605Zm1.361-8.222c0-.17.113-.284.34-.284h.454a.426.426,0,0,1,.4.284c.113.34.4.454.794.454a.788.788,0,0,0,.794-.454.426.426,0,0,1,.4-.284h.454c.227,0,.34.113.34.284a1.324,1.324,0,0,1-.567,1.134,2.442,2.442,0,0,1-2.835,0A1.394,1.394,0,0,1,160.65,41.384Z" transform="translate(-68.963 -41.1)"/><path class="b" d="M174.089,50.077V49.4c0-.113.057-.17.113-.284a.226.226,0,0,1,.227-.113H178.8c.113,0,.17.057.284.113a.433.433,0,0,1,.113.284v.68c0,.113-.057.17-.113.284a.433.433,0,0,1-.284.113h-4.366c-.113,0-.17-.057-.284-.113S174.089,50.191,174.089,50.077Z" transform="translate(-75.372 -44.521)"/><path class="b" d="M186.027,51.467V45.8c0-.113.057-.17.113-.284a.43.43,0,0,1,.227-.113h1.985c.227,0,.4.17.51.454l1.418,3.459,1.418-3.459c.113-.284.284-.454.51-.454h1.985c.113,0,.17.057.284.113a.433.433,0,0,1,.113.284v5.67c0,.113-.057.17-.113.284a.433.433,0,0,1-.284.113h-1.247c-.113,0-.17-.057-.284-.113a.43.43,0,0,1-.113-.227V47.895l-1.474,3.572a.546.546,0,0,1-.567.4h-.567a.59.59,0,0,1-.567-.4L187.9,47.895v3.629c0,.113-.057.17-.113.284a.433.433,0,0,1-.284.113h-1.247c-.113,0-.17-.057-.284-.113S186.027,51.58,186.027,51.467Z" transform="translate(-80.505 -42.962)"/><path class="b" d="M205.294,51.367a1.739,1.739,0,0,1-.794-1.531,1.644,1.644,0,0,1,.794-1.474,3.557,3.557,0,0,1,1.985-.51h1.928a1.393,1.393,0,0,0-.284-.964A1.46,1.46,0,0,0,207.9,46.6a1.386,1.386,0,0,0-1.021.34.886.886,0,0,1-.68.34h-.851c-.113,0-.17-.057-.284-.113a.43.43,0,0,1-.113-.227c0-1.134,1.077-1.644,3.175-1.644a3.78,3.78,0,0,1,2.211.624,2.232,2.232,0,0,1,.851,1.928v3.572c0,.113-.057.17-.113.284a.433.433,0,0,1-.284.113H209.66c-.113,0-.17-.057-.284-.113a.43.43,0,0,1-.113-.227v-.17a3.441,3.441,0,0,1-2.1.68A4.866,4.866,0,0,1,205.294,51.367Zm1.474-2.041a.688.688,0,0,0,0,1.021,1.216,1.216,0,0,0,.68.227,3,3,0,0,0,1.7-.51v-.907h-1.758A1.143,1.143,0,0,0,206.768,49.326Z" transform="translate(-88.545 -42.919)"/><path class="b" d="M220.2,53.352v-7.6c0-.113.057-.17.113-.284a.43.43,0,0,1,.227-.113h1.134a.3.3,0,0,1,.227.113.433.433,0,0,1,.113.284v.17a3.453,3.453,0,0,1,2.155-.624,2.7,2.7,0,0,1,2.041.851A3.336,3.336,0,0,1,227,48.589a3.27,3.27,0,0,1-.851,2.438,3.036,3.036,0,0,1-2.268.851,6.65,6.65,0,0,1-1.7-.284v1.758c0,.113-.057.17-.113.284a.43.43,0,0,1-.227.113h-1.3a.3.3,0,0,1-.227-.113A.433.433,0,0,1,220.2,53.352Zm2.041-3.119a3.886,3.886,0,0,0,1.247.227,1.407,1.407,0,0,0,1.134-.454,2.453,2.453,0,0,0,.34-1.474,2.258,2.258,0,0,0-.34-1.418,1.134,1.134,0,0,0-.964-.454,3.051,3.051,0,0,0-1.474.51v3.062Z" transform="translate(-95.343 -42.919)"/><path class="b" d="M242.007,51.48a.268.268,0,0,1-.284.284h-1.077a.972.972,0,0,1-.907-.567L239,50.006a1.593,1.593,0,0,0-1.361-.794v2.155c0,.113-.057.17-.113.284a.43.43,0,0,1-.227.113H236c-.113,0-.17-.057-.284-.113s-.113-.17-.113-.284V45.7c0-.113.057-.17.113-.284a.43.43,0,0,1,.227-.113h1.3c.113,0,.17.057.284.113s.113.17.113.284v2.155A1.357,1.357,0,0,0,239,47.058l.567-1.191a.762.762,0,0,1,.34-.4.915.915,0,0,1,.51-.17H241.5c.17,0,.284.057.284.227,0,.113-.057.17-.113.34l-.737,1.588a1.548,1.548,0,0,1-.51.68,1.266,1.266,0,0,1-.737.34A2.638,2.638,0,0,1,240.93,49.5l.964,1.588C241.951,51.31,242.007,51.424,242.007,51.48Z" transform="translate(-102.011 -42.919)"/><path class="b" d="M249.807,51.027a3.086,3.086,0,0,1-.907-2.438,3.086,3.086,0,0,1,.907-2.438,4.084,4.084,0,0,1,4.99,0,3.039,3.039,0,0,1,.907,2.381v.34c0,.113-.057.17-.113.284a.433.433,0,0,1-.284.113h-4.366a1.551,1.551,0,0,0,.4,1.021,1.6,1.6,0,0,0,1.134.34,1.444,1.444,0,0,0,1.077-.34.886.886,0,0,1,.68-.34h.851c.113,0,.17.057.284.113a.433.433,0,0,1,.113.284c0,1.134-1.077,1.644-3.175,1.644A4.013,4.013,0,0,1,249.807,51.027Zm1.134-3.062h2.722Q253.578,46.6,252.3,46.6T250.941,47.965Z" transform="translate(-107.769 -42.919)"/><path class="b" d="M263,46.477V45.8c0-.113.057-.17.113-.284a.433.433,0,0,1,.284-.113h5.727c.113,0,.17.057.284.113a.433.433,0,0,1,.113.284v.68a.3.3,0,0,1-.113.227.433.433,0,0,1-.284.113h-1.871V51.41a.3.3,0,0,1-.113.227.433.433,0,0,1-.284.113h-1.3c-.113,0-.17-.057-.284-.113a.43.43,0,0,1-.113-.227V46.818h-1.871c-.113,0-.17-.057-.284-.113Z" transform="translate(-113.875 -42.962)"/></g></g></g></svg>