<svg xmlns="http://www.w3.org/2000/svg" viewBox="0 0 208.439 45"><defs><style>.b{fill:#081439}</style></defs><circle cx="22.5" cy="22.5" r="22.5" fill="#dbdbdb"/><path class="b" d="M28.847 20.856l-1.983-1.984-2.38 2.38 1.19 1.247-7.708 7.708-7.764-7.708 7.764-7.764 1.418 1.417 2.38-2.38-2.211-2.154h-3.23l-9.239 9.238v3.287l9.238 9.238h3.23l9.3-9.238z"/><path class="b" d="M28.677 11.618H25.39l-9.238 9.238v3.287l1.984 1.984 2.38-2.38-1.247-1.247 7.764-7.764 7.764 7.764-7.764 7.708-1.417-1.417-2.38 2.437 2.154 2.154h3.287l9.238-9.238v-3.288zm24.004-5.205a1.208 1.208 0 0 1 .397-.9 1.208 1.208 0 0 1 .907-.4h10.887c2.665 0 4.65.794 5.9 2.325a5.041 5.041 0 0 1 1.077 3.232 4.5 4.5 0 0 1-1.814 3.459 4.5 4.5 0 0 1 2.552 4.253 5.191 5.191 0 0 1-2.041 4.423 8.382 8.382 0 0 1-5.1 1.531H53.924a1.39 1.39 0 0 1-.907-.34 1.128 1.128 0 0 1-.4-.907V6.413zm5.043 6.185h7.144a1.756 1.756 0 0 0 1.871-1.871 1.976 1.976 0 0 0-.51-1.418 1.839 1.839 0 0 0-1.361-.51h-7.144zm0 8.108h7.655a2.134 2.134 0 0 0 1.588-.624 2.552 2.552 0 0 0 .567-1.7 2.379 2.379 0 0 0-.567-1.7 2.046 2.046 0 0 0-1.588-.624h-7.655zm15.936 2.382l3.345-12.7c.908-3.46 3.855-5.218 8.846-5.218h7.2a.858.858 0 0 1 .794.4 1.8 1.8 0 0 1 .34.851v16.67a1.02 1.02 0 0 1-.4.851 1.288 1.288 0 0 1-.907.34h-2.491a1.288 1.288 0 0 1-.907-.34 1.2 1.2 0 0 1-.34-.907v-3.349h-9.413l-.907 3.345a1.715 1.715 0 0 1-1.588 1.247h-2.608a.9.9 0 0 1-.737-.284 1.283 1.283 0 0 1-.227-.51v-.396zm7.031-7.144h8.505V8.97h-3.8a3.362 3.362 0 0 0-2.211.737 3.721 3.721 0 0 0-1.3 1.985zm17.124.793V6.413a1.39 1.39 0 0 1 .34-.9 1.128 1.128 0 0 1 .907-.4h2.495a1.208 1.208 0 0 1 .907.4 1.208 1.208 0 0 1 .4.907v10.32a4.46 4.46 0 0 0 .851 2.948 3.472 3.472 0 0 0 2.665.964h2.155a3.472 3.472 0 0 0 2.665-.964 4.359 4.359 0 0 0 .851-2.948V6.413a1.39 1.39 0 0 1 .336-.9 1.338 1.338 0 0 1 .908-.4h2.495a1.128 1.128 0 0 1 .907.4 1.46 1.46 0 0 1 .4.907v10.32a7.476 7.476 0 0 1-2.155 5.67c-1.418 1.361-3.516 1.985-6.294 1.985h-2.384c-2.778 0-4.876-.68-6.294-1.985a7.391 7.391 0 0 1-2.155-5.673zm21.717 2.663a1.407 1.407 0 0 1 .454-1.134 1.508 1.508 0 0 1 .907-.34h1.588a1.972 1.972 0 0 1 1.814 1.3c.4.851 1.361 1.3 2.835 1.3l4.65.113c1.588 0 2.325-.51 2.325-1.531 0-.794-.964-1.361-2.892-1.814-.851-.227-1.814-.4-2.835-.624s-2.041-.454-3.062-.737a18.438 18.438 0 0 1-2.835-1.077 5.574 5.574 0 0 1-2.1-1.7 4.394 4.394 0 0 1-.794-2.552 4.793 4.793 0 0 1 1.928-4.139C122.764 5.51 124.975 5 128.094 5l3.4.057a8.8 8.8 0 0 1 4.938 1.417 4.122 4.122 0 0 1 2.211 3.516 1.407 1.407 0 0 1-.454 1.134 1.646 1.646 0 0 1-.907.34h-1.59a1.972 1.972 0 0 1-1.814-1.3c-.4-.851-1.361-1.3-2.835-1.3l-4.026-.064c-1.588 0-2.325.51-2.325 1.531 0 .567.51 1.021 1.474 1.361a27.277 27.277 0 0 0 3.629.964c1.418.284 2.835.624 4.253.964a9.6 9.6 0 0 1 3.629 1.871 4.086 4.086 0 0 1 1.474 3.289 4.793 4.793 0 0 1-1.928 4.139c-1.3.964-3.459 1.474-6.577 1.474l-4.026-.057a8.8 8.8 0 0 1-4.933-1.418 4.108 4.108 0 0 1-2.155-3.518zm22.454 3.687V6.413a1.39 1.39 0 0 1 .34-.9 1.057 1.057 0 0 1 .907-.4h3.912a1.532 1.532 0 0 1 .964.4 4.263 4.263 0 0 1 .851.907l8.052 12.418V6.413a1.39 1.39 0 0 1 .34-.907 1.288 1.288 0 0 1 .907-.34h2.327a1.39 1.39 0 0 1 .907.34 1.288 1.288 0 0 1 .34.907v16.618a1.39 1.39 0 0 1-.34.907 1.082 1.082 0 0 1-.907.34h-4.423a2.344 2.344 0 0 1-1.928-1.247l-7.373-11.454v11.454a1.39 1.39 0 0 1-.34.907 1.288 1.288 0 0 1-.907.34h-2.329a1.39 1.39 0 0 1-.907-.34 1.02 1.02 0 0 1-.393-.851zm22.114.001l3.345-12.7c.908-3.46 3.855-5.218 8.846-5.218h7.258a1.02 1.02 0 0 1 .851.4 1.25 1.25 0 0 1 .34.851v16.67a1.02 1.02 0 0 1-.4.851 1.288 1.288 0 0 1-.907.34h-2.493a1.288 1.288 0 0 1-.907-.34 1.2 1.2 0 0 1-.34-.907v-3.349h-9.526l-.907 3.345a1.715 1.715 0 0 1-1.588 1.247h-2.608a.9.9 0 0 1-.737-.284.922.922 0 0 1-.227-.51zm7.031-7.144h8.505V8.97h-3.8a3.362 3.362 0 0 0-2.211.737 3.721 3.721 0 0 0-1.3 1.985zm17.407-9.531a1.208 1.208 0 0 1 .4-.907 1.338 1.338 0 0 1 .907-.4h10.887c2.665 0 4.65.794 5.9 2.325a5.041 5.041 0 0 1 1.077 3.232 4.5 4.5 0 0 1-1.814 3.459 4.5 4.5 0 0 1 2.552 4.253 5.191 5.191 0 0 1-2.041 4.423 8.21 8.21 0 0 1-5.046 1.531h-11.579a1.39 1.39 0 0 1-.907-.34 1.338 1.338 0 0 1-.4-.907V6.413zm5.046 6.18h7.144a1.839 1.839 0 0 0 1.361-.51 1.887 1.887 0 0 0 .51-1.418 1.887 1.887 0 0 0-.51-1.418 1.839 1.839 0 0 0-1.361-.51h-7.147v3.861zm0 8.108h7.655a2.134 2.134 0 0 0 1.588-.624 2.552 2.552 0 0 0 .567-1.7 2.378 2.378 0 0 0-.567-1.7 2.046 2.046 0 0 0-1.588-.624h-7.658zM52.907 36.469A3.086 3.086 0 0 1 52 34.031a3.009 3.009 0 0 1 .907-2.438 3.991 3.991 0 0 1 2.609-.851 3.7 3.7 0 0 1 2.608.851 3.086 3.086 0 0 1 .907 2.438 3.215 3.215 0 0 1-.907 2.495 3.7 3.7 0 0 1-2.608.851 3.725 3.725 0 0 1-2.609-.908zm1.474-3.969a3.615 3.615 0 0 0 0 3.062 1.252 1.252 0 0 0 1.134.454 1.407 1.407 0 0 0 1.135-.454 2.537 2.537 0 0 0 .34-1.531 2.657 2.657 0 0 0-.34-1.531 1.252 1.252 0 0 0-1.134-.458 1.407 1.407 0 0 0-1.135.458zm6.521 4.366v-5.667c0-.113.057-.17.113-.284a.43.43 0 0 1 .227-.113h1.3c.113 0 .17.057.284.113a.433.433 0 0 1 .113.284v2.1h2.552v-2.1c0-.113.057-.17.113-.284a.433.433 0 0 1 .284-.113h1.3c.113 0 .17.057.284.113a.433.433 0 0 1 .113.284v5.67c0 .113-.057.17-.113.284a.433.433 0 0 1-.284.113h-1.3c-.113 0-.17-.057-.284-.113a.43.43 0 0 1-.113-.227v-2.158h-2.548v2.155c0 .113-.057.17-.113.284a.226.226 0 0 1-.227.113h-1.301c-.113 0-.17-.057-.284-.113a.479.479 0 0 1-.116-.341zm8.165-.057l1.021-4.253c.284-1.191 1.247-1.758 2.892-1.758h2.835a.3.3 0 0 1 .227.113.433.433 0 0 1 .113.284v5.67a.3.3 0 0 1-.113.227.43.43 0 0 1-.227.113h-1.3a.3.3 0 0 1-.227-.113.43.43 0 0 1-.113-.227v-4.592h-1.082a.947.947 0 0 0-1.021.851l-.905 3.685a.566.566 0 0 1-.227.284.806.806 0 0 1-.34.113h-1.193a.3.3 0 0 1-.227-.113.208.208 0 0 1-.057-.17c.001-.057-.056-.057-.056-.114zm9.696 0a1.739 1.739 0 0 1-.794-1.531 1.644 1.644 0 0 1 .794-1.474 3.557 3.557 0 0 1 1.985-.51h1.928a1.393 1.393 0 0 0-.284-.964 1.46 1.46 0 0 0-1.023-.288 1.386 1.386 0 0 0-1.021.34.886.886 0 0 1-.68.34h-.851c-.113 0-.17-.057-.284-.113a.43.43 0 0 1-.113-.227c0-1.134 1.077-1.644 3.175-1.644a3.78 3.78 0 0 1 2.211.624 2.232 2.232 0 0 1 .851 1.928v3.572c0 .113-.057.17-.113.284a.433.433 0 0 1-.284.113h-1.131c-.113 0-.17-.057-.284-.113a.43.43 0 0 1-.113-.227v-.17a3.441 3.441 0 0 1-2.1.68 3.21 3.21 0 0 1-1.869-.62zm1.531-2.041a.688.688 0 0 0 0 1.021 1.216 1.216 0 0 0 .68.227 3 3 0 0 0 1.7-.51v-.907h-1.757a.912.912 0 0 0-.623.169zm6.634 2.098v-5.67c0-.113.057-.17.113-.284a.43.43 0 0 1 .227-.113h1.191c.113 0 .17.057.284.113a.433.433 0 0 1 .113.284v3.8l2.041-3.742a.683.683 0 0 1 .284-.284.82.82 0 0 1 .4-.113h1.644c.113 0 .17.057.284.113a.433.433 0 0 1 .113.284v5.67c0 .113-.057.17-.113.284a.433.433 0 0 1-.284.113h-1.197c-.113 0-.17-.057-.284-.113a.43.43 0 0 1-.113-.227v-3.8L89.59 36.81a.683.683 0 0 1-.284.284.82.82 0 0 1-.4.113h-1.638c-.113 0-.17-.057-.284-.113-.056-.058-.056-.114-.056-.228zm1.361-8.222c0-.17.113-.284.34-.284h.454a.426.426 0 0 1 .4.284c.113.34.4.454.794.454a.788.788 0 0 0 .794-.454.426.426 0 0 1 .4-.284h.454c.227 0 .34.113.34.284a1.324 1.324 0 0 1-.567 1.134 2.351 2.351 0 0 1-1.418.454 2.232 2.232 0 0 1-1.418-.454 1.394 1.394 0 0 1-.573-1.133zm7.485 8.222v-5.667c0-.113.057-.17.113-.284a.226.226 0 0 1 .227-.113h1.3c.113 0 .17.057.284.113s.113.17.113.284v2.1h2.552v-2.1c0-.113.057-.17.113-.284s.17-.113.284-.113h1.3c.113 0 .17.057.284.113s.113.17.113.284v5.67c0 .113-.057.17-.113.284s-.17.113-.284.113h-1.3c-.113 0-.17-.057-.284-.113a.43.43 0 0 1-.113-.227v-2.158h-2.548v2.155c0 .113-.057.17-.113.284a.43.43 0 0 1-.227.113h-1.301c-.113 0-.17-.057-.284-.113s-.116-.228-.116-.341zm16.784.453a3.651 3.651 0 0 1-2.552-.851 3.086 3.086 0 0 1-.907-2.438 3.009 3.009 0 0 1 .907-2.438 3.5 3.5 0 0 1 2.493-.85 5.115 5.115 0 0 1 2.495.51 1.671 1.671 0 0 1 .851 1.531c0 .113-.057.17-.113.284a.433.433 0 0 1-.284.113h-.849a.74.74 0 0 1-.68-.4 1.354 1.354 0 0 0-1.191-.567 1.454 1.454 0 0 0-1.191.454 2.453 2.453 0 0 0-.34 1.474 2.573 2.573 0 0 0 .34 1.474 1.584 1.584 0 0 0 1.247.454 1.334 1.334 0 0 0 1.247-.567.8.8 0 0 1 .68-.454h.851c.113 0 .17.057.284.113a.43.43 0 0 1 .113.227 1.671 1.671 0 0 1-.851 1.531 7.269 7.269 0 0 1-2.55.4zm4.536-5.443v-.677c0-.113.057-.17.113-.284a.433.433 0 0 1 .284-.113h5.727c.113 0 .17.057.284.113a.433.433 0 0 1 .113.284v.68a.3.3 0 0 1-.113.227.433.433 0 0 1-.284.113h-1.871v4.59a.3.3 0 0 1-.113.227.433.433 0 0 1-.284.113h-1.3c-.113 0-.17-.057-.284-.113a.43.43 0 0 1-.113-.227v-4.592h-1.871c-.113 0-.17-.057-.284-.113-.004-.058-.004-.114-.004-.228zm8.051 6.918v-7.6c0-.113.057-.17.113-.284a.226.226 0 0 1 .227-.113h1.134a.3.3 0 0 1 .227.113.433.433 0 0 1 .113.284v.17a3.453 3.453 0 0 1 2.155-.624 2.784 2.784 0 0 1 2.041.851 3.336 3.336 0 0 1 .794 2.438 3.27 3.27 0 0 1-.851 2.438 3.036 3.036 0 0 1-2.268.851 6.65 6.65 0 0 1-1.7-.284v1.758c0 .113-.057.17-.113.284a.43.43 0 0 1-.227.113h-1.3a.3.3 0 0 1-.227-.113.433.433 0 0 1-.118-.282zm1.985-3.119a3.886 3.886 0 0 0 1.247.227 1.407 1.407 0 0 0 1.134-.454 2.453 2.453 0 0 0 .34-1.474 2.258 2.258 0 0 0-.34-1.418 1.134 1.134 0 0 0-.964-.454 2.876 2.876 0 0 0-1.474.51v3.062zm7.257.795a3.136 3.136 0 0 1-.907-2.495 3.009 3.009 0 0 1 .907-2.438 3.991 3.991 0 0 1 2.608-.851 3.7 3.7 0 0 1 2.608.851 3.086 3.086 0 0 1 .907 2.438 3.215 3.215 0 0 1-.907 2.495 3.7 3.7 0 0 1-2.608.851 3.612 3.612 0 0 1-2.608-.851zm1.418-3.969a3.615 3.615 0 0 0 0 3.062 1.252 1.252 0 0 0 1.134.454 1.407 1.407 0 0 0 1.134-.454 3.615 3.615 0 0 0 0-3.062 1.252 1.252 0 0 0-1.134-.454 1.491 1.491 0 0 0-1.134.453zm6.521 4.365v-5.67c0-.113.057-.17.113-.284a.226.226 0 0 1 .227-.113h1.191c.113 0 .17.057.284.113a.433.433 0 0 1 .113.284v3.8l2.041-3.742a.683.683 0 0 1 .284-.284.82.82 0 0 1 .4-.113h1.644c.113 0 .17.057.284.113s.113.17.113.284v5.67c0 .113-.057.17-.113.284s-.17.113-.284.113h-1.191c-.113 0-.17-.057-.284-.113a.43.43 0 0 1-.113-.227v-3.8l-2.041 3.629a.683.683 0 0 1-.284.284.82.82 0 0 1-.4.113h-1.644c-.113 0-.17-.057-.284-.113s-.056-.114-.056-.228zm1.361-8.222c0-.17.113-.284.34-.284h.454a.426.426 0 0 1 .4.284c.113.34.4.454.794.454a.788.788 0 0 0 .794-.454.426.426 0 0 1 .4-.284h.454c.227 0 .34.113.34.284a1.324 1.324 0 0 1-.567 1.134 2.442 2.442 0 0 1-2.835 0 1.394 1.394 0 0 1-.574-1.133zm7.03 5.273v-.677c0-.113.057-.17.113-.284a.226.226 0 0 1 .227-.113h4.371c.113 0 .17.057.284.113a.433.433 0 0 1 .113.284v.68c0 .113-.057.17-.113.284a.433.433 0 0 1-.284.113h-4.366c-.113 0-.17-.057-.284-.113s-.061-.173-.061-.287zm6.805 2.949v-5.667c0-.113.057-.17.113-.284a.43.43 0 0 1 .227-.113h1.985c.227 0 .4.17.51.454l1.418 3.459 1.418-3.459c.113-.284.284-.454.51-.454h1.985c.113 0 .17.057.284.113a.433.433 0 0 1 .113.284v5.67c0 .113-.057.17-.113.284a.433.433 0 0 1-.284.113h-1.247c-.113 0-.17-.057-.284-.113a.43.43 0 0 1-.113-.227v-3.632l-1.474 3.572a.546.546 0 0 1-.567.4h-.567a.59.59 0 0 1-.567-.4l-1.474-3.572v3.629c0 .113-.057.17-.113.284a.433.433 0 0 1-.284.113h-1.247c-.113 0-.17-.057-.284-.113s.055-.228.055-.341zm11.227-.057a1.739 1.739 0 0 1-.794-1.531 1.644 1.644 0 0 1 .794-1.474 3.557 3.557 0 0 1 1.985-.51h1.928a1.393 1.393 0 0 0-.284-.964 1.46 1.46 0 0 0-1.023-.288 1.386 1.386 0 0 0-1.021.34.886.886 0 0 1-.68.34h-.851c-.113 0-.17-.057-.284-.113a.43.43 0 0 1-.113-.227c0-1.134 1.077-1.644 3.175-1.644a3.78 3.78 0 0 1 2.211.624 2.232 2.232 0 0 1 .851 1.928v3.572c0 .113-.057.17-.113.284a.433.433 0 0 1-.284.113h-1.131c-.113 0-.17-.057-.284-.113a.43.43 0 0 1-.113-.227v-.17a3.441 3.441 0 0 1-2.1.68 4.866 4.866 0 0 1-1.869-.62zm1.474-2.041a.688.688 0 0 0 0 1.021 1.216 1.216 0 0 0 .68.227 3 3 0 0 0 1.7-.51v-.907h-1.758a1.143 1.143 0 0 0-.622.169zm6.634 4.026v-7.6c0-.113.057-.17.113-.284a.43.43 0 0 1 .227-.113h1.134a.3.3 0 0 1 .227.113.433.433 0 0 1 .113.284v.17a3.453 3.453 0 0 1 2.155-.624 2.7 2.7 0 0 1 2.041.851 3.336 3.336 0 0 1 .79 2.44 3.27 3.27 0 0 1-.851 2.438 3.036 3.036 0 0 1-2.268.851 6.65 6.65 0 0 1-1.7-.284v1.758c0 .113-.057.17-.113.284a.43.43 0 0 1-.227.113h-1.3a.3.3 0 0 1-.227-.113.433.433 0 0 1-.114-.284zm2.041-3.119a3.886 3.886 0 0 0 1.247.227 1.407 1.407 0 0 0 1.134-.454 2.453 2.453 0 0 0 .34-1.474 2.258 2.258 0 0 0-.34-1.418 1.134 1.134 0 0 0-.964-.454 3.051 3.051 0 0 0-1.474.51v3.062zm13.098 1.247a.268.268 0 0 1-.284.284h-1.077a.972.972 0 0 1-.907-.567l-.739-1.191a1.593 1.593 0 0 0-1.361-.794v2.155c0 .113-.057.17-.113.284a.43.43 0 0 1-.227.113h-1.299c-.113 0-.17-.057-.284-.113s-.113-.17-.113-.284v-5.667c0-.113.057-.17.113-.284a.43.43 0 0 1 .227-.113h1.3c.113 0 .17.057.284.113s.113.17.113.284v2.155a1.357 1.357 0 0 0 1.36-.797l.567-1.191a.762.762 0 0 1 .34-.4.915.915 0 0 1 .51-.17h1.083c.17 0 .284.057.284.227 0 .113-.057.17-.113.34l-.737 1.588a1.548 1.548 0 0 1-.51.68 1.266 1.266 0 0 1-.737.34 2.638 2.638 0 0 1 1.243 1.028l.964 1.588c.057.222.113.336.113.392zm2.042-.453a3.086 3.086 0 0 1-.907-2.438 3.086 3.086 0 0 1 .907-2.438 4.084 4.084 0 0 1 4.99 0 3.039 3.039 0 0 1 .907 2.381v.34c0 .113-.057.17-.113.284a.433.433 0 0 1-.284.113h-4.366a1.551 1.551 0 0 0 .4 1.021 1.6 1.6 0 0 0 1.134.34 1.444 1.444 0 0 0 1.077-.34.886.886 0 0 1 .68-.34h.851c.113 0 .17.057.284.113a.433.433 0 0 1 .113.284c0 1.134-1.077 1.644-3.175 1.644a4.013 4.013 0 0 1-2.498-.964zm1.134-3.062h2.722q-.085-1.365-1.363-1.365t-1.359 1.365zm5.953-1.531v-.677c0-.113.057-.17.113-.284a.433.433 0 0 1 .284-.113h5.727c.113 0 .17.057.284.113a.433.433 0 0 1 .113.284v.68a.3.3 0 0 1-.113.227.433.433 0 0 1-.284.113h-1.871v4.59a.3.3 0 0 1-.113.227.433.433 0 0 1-.284.113h-1.3c-.113 0-.17-.057-.284-.113a.43.43 0 0 1-.113-.227v-4.592h-1.871c-.113 0-.17-.057-.284-.113z"/></svg>