<svg xmlns="http://www.w3.org/2000/svg" width="1000" height="1000" viewBox="0 0 1000 1000"><path d="M65.888-12.362c-1.585-1.697-2.882-3.476-2.882-3.954 0-.479-1.085-1.142-2.411-1.475-6.02-1.51-2.901-6.98 3.404-5.97 1.912.305 8.296.56 14.186.567 12.547.013 13.79.94 8.508 6.345-1.828 1.871-4.185 4.34-5.237 5.487-1.491 1.626-3.097 2.085-7.3 2.085-4.745 0-5.73-.368-8.268-3.085zm-7.356-14.801c-1.07-1.732 2.27-2.25 15.232-2.365 12.638-.112 16.716.507 15.568 2.365-.828 1.34-29.972 1.34-30.8 0zm1.357-6.193c-4.052-1.51-.543-2.538 10.805-3.166 11.659-.645 17.175.022 17.889 2.164.44 1.32-25.417 2.223-28.694 1.002zm-.295-8.596c-.302-.489.081-1.13.852-1.427.771-.296 1.649.104 1.95.89.595 1.55-1.883 2.025-2.802.537zm3.099-5.103c-1.967-1.547-2.667-2.992-2.667-5.502 0-1.873.447-3.405.993-3.405.547 0 .994-.622.994-1.382 0-.76 1.082-1.654 2.404-1.986 2.655-.666 5.542.109 5.542 1.488 0 .488.618.887 1.374.887 1.334 0 2.59 2.932 2.554 5.96-.058 4.802-6.995 7.243-11.194 3.94zm6.273-5.536c0-.761-.894-1.384-1.987-1.384-1.87 0-2.7 1.934-1.393 3.242.967.967 3.38-.36 3.38-1.858zm11.149 5.557c-1.58-2.529-.544-6.946 1.623-6.926 4.258.04 6.647 5.342 3.457 7.674-2.39 1.748-3.636 1.565-5.08-.748zm8.965-5.696c-1.666-.56-1.578-3.702.143-5.13 1.069-.888 1.748-.786 2.98.445.877.877 1.595 2.182 1.595 2.898 0 1.42-2.734 2.455-4.718 1.787zm3.126-2.073c.281-.455-.14-.828-.935-.828s-1.446.373-1.446.828c0 .455.42.828.934.828s1.165-.373 1.447-.828zm-41.104-.841c.024-2.84 1.596-4.647 3.43-3.943 2.473.948 1.561 5.04-1.21 5.433-1.62.23-2.231-.18-2.22-1.49zm2.965-1.31a.996.996 0 0 0-.994-.994.996.996 0 0 0-.993.993c0 .546.447.993.993.993a.996.996 0 0 0 .993-.993zm-34.213 1.082c-1.072-1.733.585-3.826 4.386-5.54 6.299-2.84 8.61.901 2.76 4.468-3.465 2.112-6.246 2.53-7.146 1.072zm99.626-1.914c-3.66-3.271-3.146-5.666.997-4.639 3.066.761 7.092 4.246 7.092 6.14 0 2.315-4.819 1.42-8.089-1.501zm-44.94-.304c-1.247-1.782-1.286-2.633-.237-5.215 1.585-3.898 4.932-4.546 8.103-1.567 1.946 1.828 2.16 2.597 1.33 4.78-1.757 4.622-6.619 5.68-9.196 2.002zm6.345-3.382c0-2.009-1.893-2.757-3.532-1.396-1.073.89-1.173 1.554-.38 2.51 1.273 1.534 3.912.783 3.912-1.114zm9.933-.946c0-.546 1.788-.993 3.973-.993 2.185 0 3.973.447 3.973.993s-1.788.993-3.973.993c-2.185 0-3.973-.447-3.973-.993zm-44.201-1.49c-.832-1.345.29-2.98 2.045-2.98.787 0 1.431.894 1.431 1.987 0 2.056-2.396 2.74-3.476.993zm53.163.217c.012-.392.875-1.824 1.918-3.182 2.144-2.79 3.74-2.211 2.14.777-1.042 1.948-4.1 3.76-4.058 2.405zm-40.283-1.263c-.355-.575-1.136-.882-1.735-.682-2.03.677-4.904-3.24-4.26-5.808.332-1.318.238-2.397-.208-2.397-.445 0-.789-1.005-.764-2.235.053-2.546 2.882-7.014 3.836-6.06.348.348 1.27.102 2.051-.545 1.792-1.487 6.478-.436 8.798 1.972 2.617 2.718 2.78 10.806.266 13.32-1.09 1.089-2.508 1.86-3.153 1.711-.645-.148-1.456.19-1.802.75-.813 1.316-2.207 1.304-3.029-.026zm6.489-7.787c0-.488-.699-1.155-1.553-1.483-.854-.328-1.295-1.014-.979-1.525.53-.859-3.171-2.667-3.905-1.907-.429.444-.783 2.99-.634 4.56.134 1.413 7.07 1.76 7.07.355zm25.16 6.267c-.333-.865-1.548-1.94-2.701-2.386l-2.097-.813 2.173-.842c1.195-.464 4.436-.688 7.201-.498 5.835.399 6.671 2.232 2.098 4.596-3.753 1.942-5.915 1.923-6.675-.057zm-7.281-1.407c0-1.093.447-1.987.993-1.987.547 0 .994.894.994 1.987s-.447 1.987-.994 1.987c-.546 0-.993-.894-.993-1.987zm-44.528-5.473c-1.641-2.086-1.774-2.9-.817-4.994 1.757-3.843 5.46-4.314 8.267-1.05 2.891 3.36 2.916 5.022.106 6.99-3.133 2.195-5.299 1.924-7.556-.946zm5.594-2.77c-.165-1.117-.86-2.215-1.542-2.44-1.49-.49-2.672 2.151-1.882 4.21.836 2.178 3.783.655 3.424-1.77zm60.455 2.614c-.364-.364-.662-1.124-.662-1.688 0-.623.463-.564 1.175.149.647.646.945 1.406.663 1.688-.283.283-.812.216-1.176-.149zm-16.848-1.513c-2.028-1.267.644-4.246 4.118-4.592 1.743-.173 3.128.157 3.128.745 0 .58.95 1.056 2.109 1.056 1.693 0 1.88.273.955 1.39-1.3 1.566-8.483 2.542-10.31 1.4zm-4.673-1.489c0-.978 3.7-5.275 4.543-5.275.818 0-1.345 3.549-2.999 4.921-.85.705-1.544.865-1.544.354zm-10.648-3.646c-4.38-2.148-2.98-8.582 1.868-8.582 2.962 0 6.793 3.012 6.793 5.341 0 3.01-5.181 4.948-8.66 3.241zm4.46-3.43c.217-.648-.314-1.179-1.179-1.179s-1.573.708-1.573 1.573c0 1.754 2.139 1.448 2.753-.393zm-26.778.743c-.216-.65-1.3-1.235-2.41-1.303-3.708-.225-5.552-3.279-6.1-10.102-.44-5.483-.279-6.41 1.112-6.41.98 0 1.626-.813 1.626-2.045 0-1.124.438-1.774.973-1.444.535.331 1.904.103 3.043-.506 1.528-.818 2.425-.814 3.423.014.744.617 2.168.984 3.165.814.997-.17 1.71.223 1.584.872-.126.65.657 1.462 1.738 1.805 1.082.344 1.966 1.399 1.966 2.345 0 .947.472 2.193 1.049 2.77 1.204 1.204.211 6.302-1.227 6.302-.526 0-1.627-.67-2.447-1.49-1.324-1.325-1.655-1.325-2.98 0-3.083 3.083-8.3.943-8.3-3.405 0-3.997 5.328-5.71 7.946-2.555 1.734 2.09 2.889 1.855 2.283-.464-.281-1.074-1.316-2.209-2.299-2.52-.983-.313-2.034-1.212-2.337-2-.427-1.113-1.187-.828-3.418 1.28-3.448 3.258-4.365 5.528-3.548 8.784.704 2.805 5.147 5.472 7.925 4.757 1.194-.307 2.343.248 3.117 1.506 1.037 1.684.993 1.903-.285 1.413-.832-.32-2.343.171-3.359 1.09-1.284 1.163-1.966 1.312-2.24.492zm2.174-11.358c0-.82-.42-1.49-.934-1.49-1.253 0-2.15 1.551-1.356 2.345 1.118 1.118 2.29.681 2.29-.855zm39.922 11.348c.196-.587.78-1.068 1.3-1.068.518 0 1.103.481 1.299 1.068.196.588-.389 1.068-1.3 1.068-.91 0-1.495-.48-1.3-1.068zm1.638-6.574c-.859-.987-1.845-2.99-2.192-4.453-.825-3.478 3.27-7.103 6.635-5.873 2.284.834 4.615 4.436 4.64 7.169.033 3.665-6.627 5.98-9.083 3.157zm5.166-2.837c1.05-1.265 1.014-1.803-.199-3.017-1.602-1.602-4.809-.944-4.809.988 0 1.28 1.961 3.568 3.057 3.568.37 0 1.248-.692 1.95-1.54zM65.77-89.982c-2.351-1.838-.588-5.71 2.6-5.71 3.253-.001 4.596 3.75 2.018 5.635-2.222 1.624-2.627 1.631-4.618.075zm3.484-2.731c-.576-2.2-1.793-2.577-2.84-.882-.375.607-.067 1.494.686 1.971 2.139 1.355 2.716 1.063 2.154-1.09zm-51.109-.133c-3.112-1.14-4.409-3.673-2.296-4.484 2.184-.838 8.04.481 9.398 2.116 2.557 3.081-1.48 4.427-7.102 2.368zm61.747.04c0-.495-.894-.9-1.987-.9-1.092 0-1.986-.447-1.986-.994 0-.546-.67-.993-1.49-.993-1.136 0-1.49-1.245-1.49-5.242 0-4.203.443-5.625 2.235-7.17 2.779-2.397 9.492-2.473 11.207-.127.649.887 1.675 1.613 2.28 1.613.606 0 .827.716.491 1.59-.335.875-.139 1.882.437 2.238 1.468.907.301 6.105-1.37 6.105-.756 0-1.374.595-1.374 1.323s-1.565 1.803-3.477 2.39c-1.955.6-3.476.673-3.476.167zm41.303.226c-.798-1.292 2.508-3.777 5.815-4.37 3.503-.63 5.526.016 5.526 1.763 0 2.37-10.059 4.681-11.34 2.607zm-13.491-1.126c0-.547.447-.994.993-.994s.993.447.993.994a.996.996 0 0 1-.993.993.996.996 0 0 1-.993-.993zm-3.973-7.45c0-.91.48-1.495 1.067-1.3.588.196 1.068.781 1.068 1.3s-.48 1.104-1.068 1.3c-.587.195-1.067-.39-1.067-1.3zm-41.658-2.37c-1.452-2.714-1.32-4.616.424-6.062 3.505-2.91 9.602 2.35 6.323 5.456-2.586 2.449-5.615 2.72-6.747.606zm4.72-2.833c-.184-.95-1.075-1.87-1.982-2.045-1.23-.237-1.513.203-1.115 1.727.651 2.49 3.572 2.789 3.096.318zm26.674 2.058c-1.206-1.207-.687-5.034.857-6.316 1.87-1.552 6.427.17 6.427 2.43 0 2.603-5.587 5.583-7.284 3.886zm-40.225-6.043c-1.227-2.387-.388-4.221 1.932-4.221 2.43 0 3.481 2.53 1.862 4.482-1.61 1.94-2.7 1.866-3.794-.26zm3.614-1.316c-.196-.587-.78-1.068-1.3-1.068-.519 0-1.103.48-1.3 1.068-.195.587.39 1.068 1.3 1.068s1.496-.48 1.3-1.068zm13.774-1.362c-1.188-.9-1.701-2.345-1.49-4.19.267-2.332.848-2.868 3.376-3.115 3.736-.365 5.754 2.842 4.095 6.507-1.144 2.529-3.315 2.818-5.981.798zm3.302-4.11c0-1.753-2.138-1.448-2.752.394-.216.649.314 1.18 1.18 1.18.864 0 1.572-.708 1.572-1.573zm9.5 3.233c-1.496-1.094-1.607-1.69-.651-3.477 1.43-2.67 3.662-2.776 5.02-.238.775 1.447.644 2.3-.532 3.476-1.876 1.876-1.62 1.86-3.837.239zm3.413-1.99c0-.73-.294-1.62-.654-1.979-.898-.898-3.43 1.328-2.753 2.422.846 1.37 3.407 1.036 3.407-.444zm-48.916-6.36c-3.295-3.439-3.887-7.022-1.415-8.565 1.545-.964 2.331-.545 5.256 2.804 3.761 4.307 4.12 7.801.85 8.27-1.183.169-3.116-.865-4.691-2.509zm65.802-.178c0-2.955 5.247-8.517 7.294-7.731 2.177.835 2.08 1.74-.624 5.761-2.672 3.974-6.67 5.155-6.67 1.97zM72.157-132.63c-1.663-1.663-1.51-6.979.266-9.308 1.276-1.672 1.607-1.73 2.494-.438 1.278 1.862.868 10.155-.525 10.612-.567.186-1.573-.203-2.235-.866z" fill="#191919"/><path d="M181.965-8.491c-.355-.355-.645-2.068-.645-3.807 0-4.66-1.59-8.04-4.261-9.056l-2.362-.898-.316-24.476-.315-24.477-2.98-6.287c-1.64-3.458-4.52-7.92-6.402-9.915-3.064-3.248-3.925-3.627-8.242-3.627-7.517 0-10.47-1.45-12.724-6.244-6.073-12.92-4.533-38.208 2.557-42.002 3.802-2.035 27.344-3.263 41.017-2.14 14.038 1.152 24.629 3.524 46.395 10.389l14.158 4.465 11.098-3.998c6.104-2.2 11.377-3.999 11.717-3.999.34 0 .62 8.488.62 18.863 0 17.64-.116 18.862-1.773 18.862-.975 0-6.524-1.678-12.333-3.728-9.973-3.52-10.803-3.66-14.914-2.527-2.394.66-13.655 3.624-25.024 6.585-11.37 2.961-20.882 5.595-21.14 5.852-1.157 1.158 1.48 5.93 3.437 6.218 1.688.249 2.1.962 2.1 3.628 0 1.825-.47 3.318-1.044 3.318-.674 0-.8 1.112-.353 3.144.498 2.266.868 43.153.463 51.198-.018.361-2.536 1.17-5.595 1.798-3.059.627-6.078 1.559-6.71 2.07-.631.512-1.443 3.294-1.804 6.183-.508 4.066-1.032 5.253-2.318 5.253-.914 0-1.952-.29-2.307-.645z" fill="#080808"/><path d="M521.044-9.34c-3.583-2.226-7.593-8.418-8.31-12.83-.379-2.339.19-4.988 1.716-7.978 1.256-2.462 2.28-5.595 2.274-6.962-.03-7.368-15.6-24.18-27.498-29.693-6.228-2.885-5.711-1.857-15.496-30.858-3.323-9.849-6.823-18.64-7.779-19.536-1.57-1.47-1.597-1.442-.285.298 1.364 1.81 1 1.891-6.029 1.36-15.673-1.182-39.498-6.862-39.498-9.416 0-.976.67-.9 15.737 1.79 4.776.853 13.014 1.819 18.307 2.146 5.293.328 10.055.862 10.582 1.188 1.304.805 1.365 1.054-2.277-9.244-1.779-5.031-3-9.382-2.713-9.669.768-.768.736-.823 8.68 14.86 4.032 7.963 7.656 13.952 8.053 13.31.668-1.08 33.66-.085 50.536 1.525 11.842 1.129 36.36 7.459 36.36 9.387 0 1.32-1.665 1.163-12.533-1.174-10.897-2.344-19.913-3.12-50.082-4.312-15.372-.607-21.312-1.224-22.676-2.357-2.133-1.77-.336 2.017 8.535 17.984 8.197 14.756 11.817 19.86 20.37 28.717 4.299 4.452 8.673 10.069 9.72 12.481 2.876 6.624 6.53 9.44 14.154 10.908 6.377 1.228 10.026 5.805 11.86 14.875 1.344 6.655 5.648 11.706 9.972 11.706 2.853 0 1.998 2.608-1 3.05-1.256.186-3.757-.424-5.559-1.356-4.137-2.14-8.152-2.166-9.895-.066-1.817 2.19-11.624 2.103-15.226-.134zm12.928-3.264c1.39-.973 3.187-3.349 3.994-5.28 3.9-9.332-5.935-19.167-15.268-15.267-4.53 1.893-5.702 4.188-5.3 10.378.26 3.99 1.02 5.53 4.153 8.412 4.303 3.959 8.442 4.544 12.421 1.757zm-42.565-59.624c.855-2.23-.862-3.895-2.788-2.705-1.64 1.014-.885 4.406.981 4.406.635 0 1.448-.766 1.807-1.701zm-33.502 59.66c-6.756-3.54-9.413-14.279-5.476-22.127 2.126-4.236 8.401-8.232 14.565-9.273 4.791-.81 7.477-4.038 12.84-15.435 2.037-4.327 4.068-7.868 4.513-7.868.445 0 1.957.522 3.36 1.161l2.549 1.162-3.418 3.624c-6.48 6.87-10.915 19.564-9.042 25.876 1.16 3.913 1.44 16.434.403 18.112-1.264 2.044-9.726 5.79-13.61 6.023-2.115.127-5.123-.438-6.684-1.256zm11.11-4.254c8.395-4.341 8.419-17.643.036-21.115-11.928-4.941-21.311 14.966-9.962 21.134 3.686 2.003 6.024 1.999 9.926-.019zm24.426-63.605c-4.675-7.064-2.61-15.063 3.89-15.063 2.526 0 3.115.467 3.085 2.442-.046 2.93-2.763 15.915-3.48 16.632-.278.278-1.851-1.526-3.495-4.01zm74.193-10.109c-.26-.26-2.818-.754-5.685-1.098-2.867-.344-7.46-1.129-10.206-1.744-6.879-1.542-10.033-1.796-40.979-3.297-21.98-1.067-27.39-1.634-28.49-2.987-.746-.918-1.356-2.14-1.356-2.717 0-1.003 34.585-.291 47.212.972 15.213 1.522 40.767 7.746 41.559 10.122.392 1.178-1.087 1.717-2.055.75zm-111.26-10.531c-5.304-1.078-11.11-2.198-12.9-2.49-5.115-.831-11.778-3.388-12.21-4.685-.461-1.382 1.471-1.212 13.295 1.173 4.775.963 12.346 2.016 16.823 2.34 5.848.423 8.522 1.1 9.496 2.408.747 1 1.357 2.133 1.357 2.516 0 1.226-5.944.753-15.86-1.262zm-5.303-8.013c-4.179-.779-8.986-1.679-10.684-2-5.554-1.05-13.736-4.099-13.736-5.119 0-1.288-.327-1.313 13.24 1.01 6.387 1.093 14.934 2.086 18.994 2.205 7.039.206 10.094 1.622 10.094 4.677 0 1.265-9.078.873-17.908-.773zm93.339-.058c-11-2.41-40.067-4.777-58.841-4.793-9.845-.01-11.213-.245-12.21-2.11-.618-1.154-1.124-2.497-1.125-2.984 0-.955 30.256.033 42.805 1.397 4.215.459 8.119.714 8.674.567.556-.146 4.463.5 8.683 1.439 4.22.938 8.893 1.923 10.386 2.19 4.787.856 14.11 4.254 14.11 5.143 0 1.176-4.695.857-12.482-.849zm-43.375-11.096c-.278-.277-.05-1.355.507-2.395.556-1.04 1.492-4.032 2.078-6.65 1.416-6.318 4.622-13.762 5.21-12.096.387 1.099-1.84 13.424-3.601 19.927-.433 1.6-3.05 2.358-4.194 1.214z" fill="#181818"/><path d="M317.72-8.328c-2.992-1.627-6.315-5.994-6.315-8.302 0-.775-1.729-3.04-3.843-5.034-4.06-3.83-5.8-7.193-5.8-11.215 0-1.343-1.013-3.36-2.252-4.481-3.065-2.773-5.248-7.235-5.248-10.723 0-1.591-1.267-5.482-2.815-8.647-5.766-11.785-.175-20.997 14.582-24.023 8.95-1.835 15.938-4.188 17.712-5.962 2.296-2.295 1.95-7.21-1.194-16.975-2.164-6.721-2.62-9.804-2.11-14.276 1.923-16.901 16.533-28.246 25.947-20.148 2.774 2.386 2.992 3.218 3.584 13.66.755 13.329 2.351 17.056 12.879 30.085 10.75 13.305 10.14 12.94 22.96 13.758 12.43.793 16.668 2.515 20.615 8.372 4.694 6.966 4.77 30.566.126 39.588-3.987 7.748-6.894 9.284-17.797 9.402-15.74.17-15.688.158-21.246 4.811-2.863 2.397-7.104 5.346-9.425 6.553-8.775 4.565-34.358 6.82-40.36 3.557zm29.79-9.589c5.237-1.088 8.124-2.546 13.676-6.91 5.238-4.116 8.454-5.8 12.573-6.58 9.561-1.814 11.561-5.605 11.569-21.925.006-13.338-1.68-16.607-9.636-18.678-4.896-1.275-6.988-2.659-12.367-8.175-7.418-7.61-16.682-20.58-20.03-28.044-1.608-3.584-2.364-7.657-2.539-13.676-.137-4.714-.288-8.933-.336-9.375-.185-1.73-3.035-.661-5.71 2.143-5.88 6.163-6.455 12.674-2.365 26.77 3.147 10.848 2.828 15.756-1.346 20.717-3.657 4.346-7.338 6.084-17.17 8.105-9.487 1.95-13.667 3.803-15.25 6.76-1.56 2.916-1.53 2.992 2.82 6.976 3.745 3.432 3.86 3.742 2.557 6.89-1.923 4.641-.694 8.103 3.822 10.767 3.636 2.146 3.846 2.556 3.243 6.33-.725 4.53 1.415 8.729 4.463 8.756 3.444.032 4.948 1.874 4.687 5.741-.177 2.629.316 4.097 1.652 4.92 2.224 1.371 15.6.583 25.686-1.512zm50.25-17.208c2.43-3.71 4.143-16.903 3.182-24.512-.566-4.48-1.53-7.038-3.332-8.84-3.606-3.606-6.13-3.4-5.063.412 1.102 3.941 1.054 27.76-.065 32.144-.788 3.087-.639 3.482 1.315 3.482 1.212 0 2.995-1.209 3.963-2.686z" fill="#101010"/><text style="line-height:125%" x="35.775" y="-226.412" font-weight="400" font-size="106.754" font-family="sans-serif" letter-spacing="0" word-spacing="0" fill="#4d4d4d"><tspan x="35.775" y="-226.412">a</tspan></text><text style="line-height:125%" x="165.424" y="-226.343" font-weight="400" font-size="102.133" font-family="sans-serif" letter-spacing="0" word-spacing="0" fill="#666"><tspan x="165.424" y="-226.343">b</tspan></text><text style="line-height:125%" x="305.309" y="-234.203" font-weight="400" font-size="109.505" font-family="sans-serif" letter-spacing="0" word-spacing="0" fill="#666"><tspan x="305.309" y="-234.203">c</tspan></text><text style="line-height:125%" x="455.148" y="-235.66" font-weight="400" font-size="94.833" font-family="sans-serif" letter-spacing="0" word-spacing="0" fill="#666"><tspan x="455.148" y="-235.66">d</tspan></text></svg>